<?xml version="1.0" standalone="no"?><!DOCTYPE svg PUBLIC "-//W3C//DTD SVG 1.1//EN" "http://www.w3.org/Graphics/SVG/1.1/DTD/svg11.dtd"><svg t="1668416902353" class="icon" viewBox="0 0 1024 1024" version="1.1" xmlns="http://www.w3.org/2000/svg" p-id="7011" xmlns:xlink="http://www.w3.org/1999/xlink" width="128" height="128"><path d="M256 768c0 25.6 17.067 42.667 42.667 42.667h42.666V960c0 34.133 29.867 64 64 64 34.134 0 64-29.867 64-64V810.667h85.334V960c0 34.133 29.866 64 64 64 34.133 0 64-29.867 64-64V810.667h42.666C750.933 810.667 768 793.6 768 768V341.333H256V768zM149.333 341.333c-34.133 0-64 29.867-64 64V704c0 34.133 29.867 64 64 64 34.134 0 64-29.867 64-64V405.333c0-34.133-29.866-64-64-64z m725.334 0c-34.134 0-64 29.867-64 64V704c0 34.133 29.866 64 64 64 34.133 0 64-29.867 64-64V405.333c0-34.133-29.867-64-64-64zM661.333 93.867L716.8 38.4c8.533-8.533 8.533-21.333 0-29.867-8.533-8.533-21.333-8.533-29.867 0l-64 64C593.067 51.2 554.667 42.667 512 42.667s-81.067 8.533-115.2 25.6l-59.733-64c-8.534-4.267-25.6-4.267-34.134 0-4.266 8.533-4.266 25.6 0 34.133L358.4 93.867C298.667 140.8 256 213.333 256 298.667h512c0-85.334-42.667-162.134-106.667-204.8zM426.667 213.333H384v-42.666h42.667v42.666z m213.333 0h-42.667v-42.666H640v42.666z" fill="#3ce486" p-id="7012"></path></svg>