<?xml version="1.0" standalone="no"?><!DOCTYPE svg PUBLIC "-//W3C//DTD SVG 1.1//EN" "http://www.w3.org/Graphics/SVG/1.1/DTD/svg11.dtd"><svg t="1668416911515" class="icon" viewBox="0 0 1024 1024" version="1.1" xmlns="http://www.w3.org/2000/svg" p-id="7309" xmlns:xlink="http://www.w3.org/1999/xlink" width="128" height="128"><path d="M2.27555555 512a509.72444445 509.72444445 0 1 0 1019.4488889 0 509.72444445 509.72444445 0 1 0-1019.4488889 0z" fill="#2264E9" p-id="7310"></path><path d="M220.72888889 512a291.27111111 291.27111111 0 1 0 582.54222222 0 291.27111111 291.27111111 0 1 0-582.54222222 0z" fill="#FFFFFF" p-id="7311"></path><path d="M344.65792 344.65792l246.99107555 87.69308445 87.69308445 246.99107555-246.99107555-87.69308445z" fill="#F3F5F6" p-id="7312"></path><path d="M592.17237333 432.87552L679.86773333 679.86773333l-246.99107555-87.69422222z" fill="#E1E8F3" p-id="7313"></path><path d="M344.13226667 344.13226667l246.99221333 87.69536-159.29685333 159.29685333z" fill="#C4CFE2" p-id="7314"></path><path d="M457.38666667 512a54.61333333 54.61333333 0 1 0 109.22666666 0 54.61333333 54.61333333 0 1 0-109.22666666 0z" fill="#FFFFFF" p-id="7315"></path></svg>