<?xml version="1.0" standalone="no"?><!DOCTYPE svg PUBLIC "-//W3C//DTD SVG 1.1//EN" "http://www.w3.org/Graphics/SVG/1.1/DTD/svg11.dtd"><svg t="1668416991104" class="icon" viewBox="0 0 1024 1024" version="1.1" xmlns="http://www.w3.org/2000/svg" p-id="9172" xmlns:xlink="http://www.w3.org/1999/xlink" width="128" height="128"><path d="M533.333 682.667v-384h-42.666v426.666H640v-42.666H533.333zM896.96 533.333C885.888 736.341 717.76 897.536 512 897.536c-212.928 0-385.536-172.608-385.536-385.536S299.072 126.464 512 126.464c6.293 0 12.587 0.15 18.837 0.427l1.984-41.067c-6.912-0.32-13.866-0.49-20.821-0.49C276.352 85.333 85.333 276.351 85.333 512S276.352 938.667 512 938.667c228.48 0 415.019-179.606 426.133-405.334h0.534v-42.666h-0.534l-0.17-3.499-41.067 2.347 0.064 1.152H640v42.666h256.96zM512 1024C229.227 1024 0 794.773 0 512S229.227 0 512 0s512 229.227 512 512-229.227 512-512 512zM362.667 405.333a64 64 0 1 0 0-128 64 64 0 0 0 0 128z" fill="#D81E06" p-id="9173"></path></svg>