<?xml version="1.0" standalone="no"?><!DOCTYPE svg PUBLIC "-//W3C//DTD SVG 1.1//EN" "http://www.w3.org/Graphics/SVG/1.1/DTD/svg11.dtd"><svg t="1668416984844" class="icon" viewBox="0 0 1024 1024" version="1.1" xmlns="http://www.w3.org/2000/svg" p-id="9023" xmlns:xlink="http://www.w3.org/1999/xlink" width="128" height="128"><path d="M709.158 7.642c169.664 0 307.2 137.536 307.2 307.2v394.316c0 169.664-137.536 307.2-307.2 307.2H314.842c-169.664 0-307.2-137.536-307.2-307.2V314.842c0-169.664 137.536-307.2 307.2-307.2h394.316zM550.4 435.648h-25.6v153.6h25.6v-153.6z m-281.6 0H115.2a25.6 25.6 0 0 0-25.6 25.6h1.178v128h25.6v-128h60.224v128h25.6v-128h68.39v128h25.6v-128H294.4l-0.064-1.92a25.6 25.6 0 0 0-25.536-23.667z m463.245-0.896h-153.6v25.6h109.9L585.524 563.174h-7.078v7.079l-0.435 0.435 0.435 0.435V588.8h153.6v-25.6H621.722l102.822-102.835h7.5v-25.6z m-235.29 0h-128l-1.92 0.077a25.6 25.6 0 0 0-23.68 25.523v102.822a25.6 25.6 0 0 0 25.6 25.6h128v-25.6h-128v-34.432h128v-25.6h-128v-42.79h128v-25.6z m286.49 0h-25.6v128.422l0.077 1.92a25.6 25.6 0 0 0 25.523 23.68h102.4A25.6 25.6 0 0 0 907.815 576h3.43V434.74h-25.6v128.422h-102.4v-128.41z" fill="#1296DB" p-id="9024"></path></svg>