<?xml version="1.0" standalone="no"?><!DOCTYPE svg PUBLIC "-//W3C//DTD SVG 1.1//EN" "http://www.w3.org/Graphics/SVG/1.1/DTD/svg11.dtd"><svg t="1668417037531" class="icon" viewBox="0 0 1024 1024" version="1.1" xmlns="http://www.w3.org/2000/svg" p-id="10077" xmlns:xlink="http://www.w3.org/1999/xlink" width="128" height="128"><path d="M714.63822222 3.64088889c168.39111111 0 304.81066667 136.41955555 304.81066667 304.81066666v406.41422223c0 168.39111111-136.41955555 304.81066667-304.81066667 304.81066667H308.224C139.94666667 1019.67644445 3.41333333 883.25688889 3.41333333 714.86577778V308.45155555C3.41333333 140.17422222 139.94666667 3.64088889 308.224 3.64088889h406.41422222zM528.95288889 321.76355555H230.28622222c-1.13777778 0-2.16177778 0.45511111-2.95822222 1.25155556-0.79644445 0.79644445-1.25155555 1.82044445-1.25155555 2.95822222v369.664c0 1.13777778 0.45511111 2.16177778 1.25155555 2.95822222 0.79644445 0.79644445 1.82044445 1.25155555 2.95822222 1.25155556h79.75822223c2.27555555 0 4.20977778-1.93422222 4.20977777-4.20977778v-290.13333333c0-2.38933333 1.82044445-4.32355555 4.20977778-4.32355555h171.57688889c32.19911111 0 58.368 26.85155555 58.368 59.8471111v234.60977778c0 2.38933333 1.82044445 4.20977778 4.096 4.20977778h78.62044444c1.13777778 0 2.16177778-0.45511111 2.95822222-1.25155556 0.79644445-0.79644445 1.25155555-1.82044445 1.13777778-2.95822222V430.76266667c0-60.18844445-47.55911111-108.99911111-106.26844444-108.99911112zM469.90222222 468.992h-79.75822222c-1.13777778 0-2.16177778 0.45511111-2.95822222 1.25155555-0.79644445 0.79644445-1.25155555 1.93422222-1.25155556 2.95822223v222.32177777c0 2.38933333 1.82044445 4.20977778 4.20977778 4.20977778H469.90222222c1.13777778 0 2.16177778-0.45511111 2.95822223-1.25155555 0.79644445-0.79644445 1.25155555-1.93422222 1.25155555-3.072V473.31555555c0-1.13777778-0.45511111-2.16177778-1.25155555-3.072-0.79644445-0.79644445-1.82044445-1.25155555-2.95822223-1.25155555z m318.91911111-147.22844445h-79.75822222c-2.27555555 0-4.20977778 1.93422222-4.20977778 4.32355556v369.664c0 2.38933333 1.93422222 4.20977778 4.20977778 4.20977778h79.75822222c2.27555555 0 4.20977778-1.93422222 4.20977778-4.20977778v-369.77777778c0-1.13777778-0.45511111-2.16177778-1.25155556-3.072-0.68266667-0.68266667-1.82044445-1.13777778-2.95822222-1.13777778z m0 0" fill="#FFA500" p-id="10078"></path></svg>