<?xml version="1.0" standalone="no"?><!DOCTYPE svg PUBLIC "-//W3C//DTD SVG 1.1//EN" "http://www.w3.org/Graphics/SVG/1.1/DTD/svg11.dtd"><svg t="1668416819326" class="icon" viewBox="0 0 1024 1024" version="1.1" xmlns="http://www.w3.org/2000/svg" p-id="5501" xmlns:xlink="http://www.w3.org/1999/xlink" width="128" height="128"><path d="M386.66773334 648.1216c-0.34666667-0.49386667-0.77653333-0.93546667-1.1392-1.41546667l-0.05013334 0.44266667c0.33706667 0.27626667 0.48 0.4 1.18933334 0.9728z" fill="#EA9518" p-id="5502"></path><path d="M984.09066667 412.96l-0.2176-1.81333333-0.7456 0.01706666c2.384-30.82666667 0.88533333-68.9024-5.6448-110.02666666-13.52853333-85.20746667-42.8928-151.63306667-68.6752-159.64266667 16.15253333 19.04 27.2576 67.32586667 28.95146667 127.26613333-31.0336-121.3376-147.58613333-204.08-275.38133334-189.00266666-1.28853333 0.15253333-2.51733333 0.46826667-3.79733333 0.64533333h-32.56746667s65.7376 16.24 85.07306667 24.7488c18.368 8.08426667 66.57813333 22.42453333 28.90986667 25.8272l-96.75093334 16.3232c7.66186667 0.32853333 15.30666667 0.7296 22.78186667 1.73866667 0.6592 0.09173333 1.30986667 0.20053333 1.96906667 0.3008a231.56586667 231.56586667 0 0 1 146.57386666 82.79146666l0.0128 0.01386667c0.0384 0.048 0.06826667 0.0992 0.10666667 0.1472 5.1776 6.35306667 9.95413333 13.03466667 14.44693333 19.92213333 0.90773333 1.3984 1.71733333 2.85866667 2.59626667 4.2752a231.86133333 231.86133333 0 0 1 10.14186667 18.02026667c0.71466667 1.42613333 1.392 2.86613333 2.07786666 4.30933333a230.57493333 230.57493333 0 0 1 8.58133334 20.4192c0.34133333 0.94293333 0.70186667 1.872 1.0336 2.82026667 8.4192 24.02666667 13.232 49.74826667 13.232 76.6496 0 6.5984-0.4352 13.08906667-0.9856 19.5424-7.56053333-37.1648-22.064-62.6688-38.93333334-62.6688-0.86293333 0-1.66933333 0.55573333-2.52053333 0.6848 7.66506667 22.54933333 12.42986667 53.81013333 12.42986667 88.4288 0 17.35253333-1.25226667 33.71306667-3.4304 48.6016-1.776 8.496-3.17013333 14.67946667-3.17013334 14.67946667s-21.65333333-33.2544-27.84106666-33.2544H796.16s5.4144 80.43093333-3.09333333 113.68853333c-8.50773333 33.2544-20.88 73.46986667-34.0288 84.29866667-13.1456 10.82666667-16.24106667 18.56-10.05226667-9.28s13.92-53.36533333 13.92-53.36533334-20.83093333 25.7312-48.38933333 53.7984c-30.24213333 40.59733333-81.9168 70.78933333-143.57866667 78.00533334-78.8416 9.23093333-150.8192-21.53386667-185.64266666-73.10613334l0.18773333-1.61493333c-0.2144-0.1792-0.76373333-0.62613333-0.76373333-0.62613333h0.6656c0.04266667 0.06613333 0.0992 0.12053333 0.1472 0.18346666l0.02346666-0.1856c4.4704-0.00426667 61.6672-0.08853333 77.2768-2.31786666 16.24-2.32106667 61.86986667-19.3344 68.8288-28.6144 6.96106667-9.28 29.38986667-30.16213333 47.95093334-30.16213334s46.4032-2.32106667 31.70986666-23.20213333C596.62506667 541.344 565.33333334 519.68853333 514.08106667 528.97066667c-51.24906667 9.28-45.06346667 37.89546667-103.84106667 20.88213333-58.77653333-17.01546667-97.44746667-74.24533333-71.92533333-102.08746667 25.52213333-27.84106667 61.0976-4.64 64.192-3.86666666l3.09226667 0.77226666-3.09333334-72.5728s86.61973333-53.488 88.93866667-60.448 10.8288-40.21653333-6.18666667-41.76426666c-17.01333333-1.54666667-71.92533333 2.32106667-79.65866666 0-6.79253333-2.03733333-25.41333333-19.16373333-33.15946667-29.6928-1.14026667-6.4992-1.76533333-13.16906667-1.55946667-20.04053334 1.23946667-41.07093333 26.74986667-75.51146667 62.25813334-90.5536a114.20586667 114.20586667 0 0 0-22.88213334-3.02293333c-44.3072-1.3344-82.9568 23.16373333-102.72746666 59.64053333-17.89333333-7.616-42.28266667-12.34453333-69.25653334-12.34453333-16.49706667 0-31.81866667 1.9232-45.50826666 5.0304-30.56213333-20.84266667-52.91733333-52.72746667-60.52266667-90.1056-30.9952 26.74133333-51.41333333 65.52213333-52.74346667 109.664-0.7072 23.488 4.57173333 45.54666667 13.64693334 65.59573333l-3.54453334 0.80213334s-49.03786667 83.9136-55.99786666 122.58346666c-6.96106667 38.6688-6.18773333 45.6288-6.18773334 45.6288l17.01333334-41.7632s-12.37333333 85.84533333-13.14666667 117.5552c-0.7744 31.70986667 0 56.45653333 0 56.45653334s6.96106667-42.53546667 7.73333333-40.2144c0.77333333 2.32 14.6944 182.52053333 141.5296 293.888s258.30826667 129.152 372.7712 126.832c114.4608-2.32106667 275.32373333-86.61973333 339.51573334-185.6128 64.192-98.992 98.9952-233.5616 101.31413333-285.38026667 2.32106667-51.81546667 6.62826667-119.1008 6.62826667-119.1008l-16.68266667 57.22986667zM600.2336 716.69866667h-0.00213333l0.00533333-0.00213334-0.0032 0.00213334z m18.64533334-5.02186667c-0.96426667 0.22186667-1.728 0.31573333-2.80533334 0.62826667-1.25866667 0.3648-2.1056 0.752-3.1648 1.1392-0.2464 0.05866667-0.45546667 0.10133333-0.704 0.16-3.70133333 0.89173333-7.02506667 1.77173333-9.41333333 2.47786666-0.23146667 0.0288-0.432 0.0352-0.67733333 0.08106667 6.61333333-1.54133333 13.03466667-3.41653333 19.3312-5.4784-0.90026667 0.34026667-1.76106667 0.66666667-2.56533334 0.992z m23.17866666-8.6432c-1.13706667 0.35626667-2.28266667 0.71786667-3.5168 1.14133333 3.12213333-1.30346667 6.3968-2.40106667 9.42826667-3.81973333l-5.91146667 2.67733333z" fill="#EA9518" p-id="5503"></path></svg>