<?xml version="1.0" standalone="no"?><!DOCTYPE svg PUBLIC "-//W3C//DTD SVG 1.1//EN" "http://www.w3.org/Graphics/SVG/1.1/DTD/svg11.dtd"><svg t="1668417129566" class="icon" viewBox="0 0 1024 1024" version="1.1" xmlns="http://www.w3.org/2000/svg" p-id="12099" xmlns:xlink="http://www.w3.org/1999/xlink" width="128" height="128"><path d="M479.54 1023.997c-22.696-3.405-45.574-5.902-68.06-10.368-114.144-22.677-209.34-78.66-285.66-166.111-20.978-24.04-38.721-50.897-58.658-77.41 80.669-45.492 163.582-76.821 252.082-94.076 0 18.912 1.715 37.39-0.499 55.382-2.072 16.835-16.688 26.577-33.79 26.7-12.912 0.096-25.823 0.085-38.734 0.156-0.647 0.005-1.29 0.354-2.642 0.747v23.742h191.05v-24.634c-13.742 0-27.244 0.045-40.747-0.008-20.213-0.082-34.875-13.023-36.001-33.104-0.916-16.354-0.159-32.798-0.592-49.19-0.193-7.329 4.515-7.202 9.505-7.947 69.633-10.386 139.672-11.998 209.87-9.539 87.327 3.057 174.133 11.654 258.914 33.262 44.078 11.234 86.882 27.472 130.244 41.509 1.942 0.63 3.697 1.839 8.047 4.053-15.815 25.168-29.903 50.859-47.055 74.312C850 916.496 747.83 983.689 620.741 1012.149c-21.693 4.856-44.065 6.689-66.118 9.963-3.407 0.505-6.779 1.252-10.168 1.888-21.639-0.003-43.275-0.003-64.914-0.003z m544.457-479.54c-2.789 19.982-5.03 40.061-8.486 59.926-6.409 36.836-17.076 72.472-32.618 108.204-84.808-41.103-172.496-72.914-266.142-87.787-0.241-3.75-0.612-6.769-0.605-9.785 0.217-99.45 0.438-198.902 0.738-298.353 0.07-23.644 10.767-38.732 30.133-41.522 8.21-1.183 16.714-0.38 25.084-0.427 7.239-0.042 14.48-0.009 22.33-0.009v-24.452h-190.96v24.452c12.724 0 25.186-0.015 37.646 0.004 24.342 0.036 39.164 14.492 39.303 38.945 0.248 43.619 0.179 87.238 0.276 130.857 0.121 53.739 0.276 107.477 0.415 161.215 0.011 4.11 0.002 8.222 0.002 12.327-13.785 1.92-22.597-2.806-31.049-13.038-96.188-116.48-192.86-232.558-289.535-348.635-2.443-2.934-6.354-6.577-9.612-6.608-45.313-0.434-90.63-0.293-136.82-0.293v25.228c13.182 0 26.346-0.456 39.446 0.264 4.22 0.232 9.403 2.54 12.21 5.647 17.307 19.151 34.23 38.66 50.835 58.425 2.848 3.389 5.033 8.578 5.03 12.934-0.059 89.68-0.477 179.357-0.854 269.04-0.008 2.035-0.374 4.07-0.603 6.42-96.28 17.951-190.954 40.438-282.72 76.245-13.505-32.439-23.046-65.439-28.917-99.45-3.423-19.828-5.72-39.844-8.524-59.775v-64.915c0.604-3.011 1.506-5.996 1.769-9.037 10.613-122.736 58.8-228.495 144.679-316.623C220.019 78.38 308.988 30.37 412.497 9.968 434.64 5.604 457.182 3.27 479.54 0h64.915c2.695 0.578 5.366 1.482 8.09 1.686 52.878 3.947 104.198 15.217 152.78 36.344 169.552 73.735 273.235 201.406 310.288 382.685 3.959 19.37 5.643 39.207 8.383 58.826v64.915zM815.391 295.642l-52.634 0.001c-21.42 0.001-24.914 3.42-24.972 24.75-0.245 91.787-0.458 183.573-0.683 275.36-0.01 3.704 0 7.41 0 11.193 82.167 15.165 159.113 42.421 233.696 76.69 63.38-154.343 42.213-392.67-145.406-549.808-179.488-150.326-447.932-150.157-626.836-0.05C11.003 291.147-8.479 527.707 50.02 674.799c40.112-11.912 79.863-24.867 120.247-35.385 40.77-10.619 82.14-18.967 123.33-27.929 6.354-1.382 6.33-5.06 6.344-9.824 0.274-80.619 0.682-161.238 0.706-241.857 0.001-4.345-2.154-9.491-4.964-12.896-12.43-15.069-25.127-29.958-38.512-44.172-3.508-3.725-9.743-6.505-14.879-6.775-16.257-0.854-32.586-0.315-49.228-0.315v-67.13h12.098c48.163 0 96.33 0.341 144.484-0.262 10.782-0.135 17.77 2.92 24.712 11.322 86.895 105.176 174.175 210.032 261.376 314.955 7.406 8.91 14.94 17.714 23.787 28.194 0.274-4.918 0.525-7.286 0.521-9.652-0.155-85.505-0.333-171.011-0.51-256.517-0.004-1.047 0.03-2.096-0.02-3.14-0.615-12.514-5.728-17.632-18.223-17.734-16.75-0.138-33.503-0.002-50.255-0.07-2.976-0.013-5.95-0.445-8.56-0.654V229.27H815.39v66.374zM549.168 606.811L357.63 618.787V386.096l191.54 220.715zM378.374 441.925v154.564c42.292-3.138 83.607-6.205 125.953-9.346L378.374 441.925z" fill="#8A8A8A" p-id="12100"></path></svg>