<?xml version="1.0" standalone="no"?><!DOCTYPE svg PUBLIC "-//W3C//DTD SVG 1.1//EN" "http://www.w3.org/Graphics/SVG/1.1/DTD/svg11.dtd"><svg t="1668417071730" class="icon" viewBox="0 0 1024 1024" version="1.1" xmlns="http://www.w3.org/2000/svg" p-id="10823" xmlns:xlink="http://www.w3.org/1999/xlink" width="128" height="128"><path d="M853.143 130.286Q758.857 67.429 648 67.429q-88.571 0-167.429 41.714T343.43 223.429Q300.57 276.57 275.143 348t-27.714 152v24q2.285 80.571 27.714 152t68.286 124.571q58.285 72.572 137.142 114.286T648 956.571q110.857 0 205.143-62.857-69.143 61.715-156.857 96T512 1024q-16.571 0-24.571-0.571-100-4.572-190.286-46.858T141.714 866.286 38.286 705.714 0 512q0-104 40.571-198.857t109.143-163.429T313.143 40.571 512 0h1.714q96 0.571 183.143 34.571t156.286 95.715zM1024 512q0 109.714-44 207.143T858.286 888.57q-59.429 36-126.857 36-78.286 0-145.715-48 88-32 144.857-133.142T787.43 512q0-129.714-56.572-230.857T586.286 147.429Q654.286 100 731.429 100q68 0 129.142 37.143 77.143 71.428 120.286 168.571T1024 512z" fill="#D81E06" p-id="10824"></path></svg>