<?xml version="1.0" standalone="no"?><!DOCTYPE svg PUBLIC "-//W3C//DTD SVG 1.1//EN" "http://www.w3.org/Graphics/SVG/1.1/DTD/svg11.dtd"><svg t="1668417062581" class="icon" viewBox="0 0 1024 1024" version="1.1" xmlns="http://www.w3.org/2000/svg" p-id="10524" xmlns:xlink="http://www.w3.org/1999/xlink" width="128" height="128"><path d="M640 460.8c-51.2 0-83.2 25.6-83.2 60.8 0 35.2 32 60.8 83.2 60.8s83.2-25.6 83.2-60.8C720 486.4 688 464 640 460.8z m-252.8 0c-51.2 0-83.2 25.6-83.2 60.8 0 35.2 32 60.8 83.2 60.8s83.2-25.6 83.2-60.8c-3.2-35.2-35.2-57.6-83.2-60.8z m-252.8 0c-51.2 0-83.2 25.6-83.2 60.8 0 35.2 32 60.8 83.2 60.8s83.2-25.6 83.2-60.8c-3.2-35.2-35.2-57.6-83.2-60.8zM512 0C230.4 0 0 230.4 0 512s230.4 512 512 512 512-230.4 512-512S793.6 0 512 0zM134.4 611.2C64 611.2 16 572.8 16 521.6c0-51.2 48-89.6 115.2-89.6h3.2c70.4 0 115.2 38.4 115.2 89.6 0 51.2-44.8 89.6-115.2 89.6z m252.8 0c-35.2 0-64-9.6-83.2-22.4v80h-35.2V441.6H304v16c19.2-12.8 48-22.4 80-22.4h3.2c70.4 0 115.2 38.4 115.2 89.6 3.2 51.2-48 86.4-115.2 86.4z m252.8 0c-35.2 0-64-9.6-83.2-22.4v80h-35.2V441.6h35.2v16c19.2-12.8 48-22.4 80-22.4h3.2c70.4 0 115.2 38.4 115.2 89.6 0 51.2-44.8 86.4-115.2 86.4z m252.8 0c-70.4 0-118.4-38.4-118.4-89.6 0-51.2 48-89.6 115.2-89.6h3.2c70.4 0 115.2 38.4 115.2 89.6 0 51.2-48 89.6-115.2 89.6z m-3.2-150.4c-51.2 0-83.2 25.6-83.2 60.8 0 35.2 32 60.8 83.2 60.8s83.2-25.6 83.2-60.8c0-35.2-32-57.6-83.2-60.8z" fill="#0E932E" p-id="10525"></path></svg>