<?xml version="1.0" standalone="no"?><!DOCTYPE svg PUBLIC "-//W3C//DTD SVG 1.1//EN" "http://www.w3.org/Graphics/SVG/1.1/DTD/svg11.dtd"><svg t="1668417067195" class="icon" viewBox="0 0 1024 1024" version="1.1" xmlns="http://www.w3.org/2000/svg" p-id="10673" xmlns:xlink="http://www.w3.org/1999/xlink" width="128" height="128"><path d="M349.86666667 713.38666667c5.46133333-22.30044445 13.76711111-43.80444445 24.68977778-63.71555556-56.54755555-40.16355555-93.41155555-106.26844445-93.41155556-180.90666666 0-122.42488889 99.328-221.75288889 221.75288889-221.7528889S724.65066667 346.33955555 724.65066667 468.76444445c0 24.00711111-3.86844445 47.104-10.80888889 68.72177777 46.42133333 21.16266667 85.90222222 55.40977778 113.09511111 98.19022223 33.45066667 1.93422222 65.87733333 12.17422222 94.208 29.696 28.10311111-59.61955555 43.80444445-126.29333333 43.80444444-196.49422223 0-255.08977778-206.848-461.93777778-461.93777778-461.93777777S40.96 213.67466667 40.96 468.76444445c0 159.06133333 80.44088889 299.34933333 202.752 382.4071111 7.05422222-61.66755555 47.67288889-114.91555555 106.15466667-137.78488888z" fill="#4795F4" p-id="10674"></path><path d="M978.26133333 808.84622222c-11.94666667-84.30933333-83.85422222-149.61777778-171.12177778-150.86933333-27.19288889-46.19377778-69.17688889-80.66844445-117.87377777-99.21422222-13.65333333-5.23377778-27.76177778-8.98844445-42.32533333-11.60533334-13.312-2.38933333-26.73777778-3.98222222-40.5048889-3.98222222-111.16088889 0-205.48266667 77.14133333-227.89688888 184.77511111-57.344 19.11466667-98.87288889 73.15911111-98.87288889 136.87466667 0 79.53066667 64.73955555 144.384 144.27022222 144.384 28.672 0 55.97866667-8.30577778 79.64444445-24.00711111 31.85777778 15.70133333 67.12888889 24.00711111 102.8551111 24.00711111 37.09155555 0 73.84177778-8.98844445 106.60977778-25.94133334 27.53422222 16.95288889 58.82311111 25.94133333 91.59111112 25.94133334 91.70488889 0 167.13955555-70.656 174.76266666-160.42666667 0.45511111-5.00622222 0.79644445-10.12622222 0.79644444-15.24622222 0.11377778-8.41955555-0.68266667-16.61155555-1.93422222-24.68977778z" fill="#E5E5E5" p-id="10675"></path></svg>