<?xml version="1.0" standalone="no"?><!DOCTYPE svg PUBLIC "-//W3C//DTD SVG 1.1//EN" "http://www.w3.org/Graphics/SVG/1.1/DTD/svg11.dtd"><svg t="1668416876849" class="icon" viewBox="0 0 1024 1024" version="1.1" xmlns="http://www.w3.org/2000/svg" p-id="6410" xmlns:xlink="http://www.w3.org/1999/xlink" width="128" height="128"><path d="M1023.12 482c-4.02-70.36-22.24-138.04-53.26-199.7-8.96-17.84-19-35.18-30.08-51.92a517.048 517.048 0 0 0-65.74-80.42 517.048 517.048 0 0 0-80.42-65.74 503.49 503.49 0 0 0-51.92-30.08C680.04 23.12 612.36 4.9 542 0.88c-9.96-0.6-19.96-0.88-30-0.88s-20.04 0.28-30 0.88c-70.36 4.02-138.04 22.24-199.7 53.26-17.84 8.96-35.18 19-51.92 30.08-56.334 37.256-106.966 86.894-146.16 146.16a503.49 503.49 0 0 0-30.08 51.92C23.12 343.96 4.9 411.64 0.88 482c-0.6 9.96-0.88 19.96-0.88 30s0.28 20.04 0.88 30c4.02 70.36 22.24 138.04 53.26 199.7 8.96 17.84 19 35.18 30.08 51.92a517.048 517.048 0 0 0 65.74 80.42 517.048 517.048 0 0 0 80.42 65.74c16.74 11.08 34.08 21.12 51.92 30.08 61.66 31.02 129.34 49.24 199.7 53.26 9.96 0.6 19.96 0.88 30 0.88s20.04-0.28 30-0.88c70.36-4.02 138.04-22.24 199.7-53.26 17.84-8.96 35.18-19 51.92-30.08a517.048 517.048 0 0 0 80.42-65.74 517.048 517.048 0 0 0 65.74-80.42c11.08-16.74 21.12-34.08 30.08-51.92 31.02-61.66 49.24-129.34 53.26-199.7 0.6-9.96 0.88-19.96 0.88-30s-0.28-20.04-0.88-30z" fill="#51CAF3" p-id="6411"></path><path d="M230.38 939.78c16.74 11.08 34.08 21.12 51.92 30.08 61.66 31.02 129.34 49.24 199.7 53.26 9.96 0.6 19.96 0.88 30 0.88s20.04-0.28 30-0.88c70.36-4.02 138.04-22.24 199.7-53.26 17.84-8.96 35.18-19 51.92-30.08a517.048 517.048 0 0 0 80.42-65.74 517.048 517.048 0 0 0 65.74-80.42c11.08-16.74 21.12-34.08 30.08-51.92 31.02-61.66 49.24-129.34 53.26-199.7 0.6-9.96 0.88-19.96 0.88-30s-0.28-20.04-0.88-30c-4.02-70.36-22.24-138.04-53.26-199.7-8.96-17.84-19-35.18-30.08-51.92a517.048 517.048 0 0 0-65.74-80.42L149.96 874.04a517.048 517.048 0 0 0 80.42 65.74z" fill="#3FA0E1" p-id="6412"></path><path d="M575.64 618.066l-169.706-169.706a30 30 0 0 1 9.396-48.788l296.984-127.28a30 30 0 0 1 39.394 39.392l-127.28 296.984a30.006 30.006 0 0 1-48.788 9.398z" fill="#FE4234" p-id="6413"></path><path d="M490.788 533.212l84.854 84.852a29.998 29.998 0 0 0 48.786-9.396l127.28-296.984a30 30 0 0 0-6.362-33.03L490.788 533.212z" fill="#E33745" p-id="6414"></path><path d="M542 0.88V90c0 16.56-13.44 30-30 30s-30-13.44-30-30V0.88c9.96-0.6 19.96-0.88 30-0.88s20.04 0.28 30 0.88zM316 172.52c-14.348 8.268-32.682 3.378-40.98-10.98l-44.64-77.32c16.74-11.08 34.08-21.12 51.92-30.08l44.68 77.4c8.28 14.34 3.36 32.7-10.98 40.98zM172.52 316c-8.286 14.338-26.616 19.258-40.98 10.98l-77.4-44.68c8.96-17.84 19-35.18 30.08-51.92l77.32 44.64c14.34 8.28 19.26 26.64 10.98 40.98zM120 512c0 16.56-13.44 30-30 30H0.88c-0.6-9.96-0.88-19.96-0.88-30s0.28-20.04 0.88-30H90c16.56 0 30 13.44 30 30zM161.54 748.98l-77.32 44.64a503.49 503.49 0 0 1-30.08-51.92l77.4-44.68c14.34-8.28 32.7-3.36 40.98 10.98s3.36 32.7-10.98 40.98zM793.62 84.22l-44.64 77.32c-8.294 14.35-26.624 19.254-40.98 10.98-14.34-8.28-19.26-26.64-10.98-40.98l44.68-77.4c17.84 8.96 35.18 19 51.92 30.08zM405.95 405.95a29.958 29.958 0 0 0-6.376 9.38l-127.28 296.984a30 30 0 1 0 39.392 39.392l296.986-127.28a29.98 29.98 0 0 0 9.38-6.376l-212.102-212.1z" fill="#EEEEEE" p-id="6415"></path><path d="M278.656 745.344a30 30 0 0 0 33.03 6.362l296.986-127.28a29.98 29.98 0 0 0 9.38-6.376L512 512 278.656 745.344zM542 934v89.12c-9.96 0.6-19.96 0.88-30 0.88s-20.04-0.28-30-0.88V934c0-16.56 13.44-30 30-30s30 13.44 30 30zM793.62 939.78a503.49 503.49 0 0 1-51.92 30.08l-44.68-77.4c-8.28-14.34-3.36-32.7 10.98-40.98s32.7-3.36 40.98 10.98l44.64 77.32zM969.86 741.7c-8.96 17.84-19 35.18-30.08 51.92l-77.32-44.64c-14.34-8.28-19.26-26.64-10.98-40.98s26.64-19.26 40.98-10.98l77.4 44.68zM1024 512c0 10.04-0.28 20.04-0.88 30H934c-16.56 0-30-13.44-30-30s13.44-30 30-30h89.12c0.6 9.96 0.88 19.96 0.88 30zM969.86 282.3l-77.4 44.68c-14.366 8.278-32.694 3.356-40.98-10.98-8.28-14.34-3.36-32.7 10.98-40.98l77.32-44.64c11.08 16.74 21.12 34.08 30.08 51.92zM326.98 892.46l-44.68 77.4c-17.84-8.96-35.18-19-51.92-30.08l44.64-77.32c8.28-14.34 26.62-19.26 40.98-10.98 14.34 8.28 19.26 26.64 10.98 40.98z" fill="#C6C6C6" p-id="6416"></path></svg>