<?xml version="1.0" standalone="no"?><!DOCTYPE svg PUBLIC "-//W3C//DTD SVG 1.1//EN" "http://www.w3.org/Graphics/SVG/1.1/DTD/svg11.dtd"><svg t="1668417115799" class="icon" viewBox="0 0 1024 1024" version="1.1" xmlns="http://www.w3.org/2000/svg" p-id="11801" xmlns:xlink="http://www.w3.org/1999/xlink" width="128" height="128"><path d="M11.37813333 548.40853333v-65.9904c2.2752-11.37813333 2.2752-20.48 4.5504-34.13333333 20.48-152.46293333 97.8496-270.79146667 227.55626667-354.98666667 113.77706667-72.81813333 238.93333333-97.8496 368.64-68.26666666C814.64853333 70.54186667 944.3552 197.97333333 998.96853333 402.77333333c4.55146667 22.7552 6.82666667 50.06186667 13.65333334 77.36853334v70.54293333c0 2.2752-2.2752 6.82666667-2.2752 11.37706667-13.65333333 127.43146667-63.7152 232.10666667-152.46186667 316.30293333-122.88 116.05333333-268.51626667 157.01333333-432.35626667 129.70666667-197.97333333-34.13333333-354.98666667-184.32-400.49706666-384.5696-9.10293333-25.0304-11.37813333-52.33706667-13.65333334-75.09333334zM689.49333333 887.46666667s0 2.2752 2.2752 2.2752c20.48-13.65333333 43.23626667-22.7552 61.44-36.40853334C887.46666667 764.58666667 964.8352 587.09333333 935.25333333 430.08c-27.30666667-143.36-104.6752-243.4848-234.38186666-300.37333333-50.06293333-22.7552-104.67626667-34.13333333-163.84-20.48-50.06293333 11.37813333-81.92 43.2352-97.8496 88.74666666-15.92853333 47.78666667-4.5504 86.47146667 27.30666666 122.88 22.75626667 27.30666667 50.06293333 47.78666667 81.92 63.7152 38.6848 20.48 79.6448 38.6848 118.3296 61.44C721.35146667 477.86666667 762.31146667 518.82666667 785.06666667 580.26666667c29.58186667 77.36853333 15.92853333 147.91146667-18.2048 216.17813333C744.10666667 832.85333333 719.0752 862.4352 689.49333333 887.46666667zM304.9248 125.1552s-4.55146667 2.27626667-6.82666667 4.55146667c-6.82666667 4.55146667-13.65333333 6.82666667-20.48 13.65333333-116.05333333 77.36853333-182.0448 186.5952-193.42293333 323.12853333-11.37706667 111.50293333 20.48 211.62666667 88.74666667 298.09813334C216.17813333 819.2 266.24 862.4352 334.50666667 878.3648c52.33813333 11.37706667 104.6752 15.92853333 154.73813333-6.82666667 68.26666667-29.58293333 111.50186667-118.3296 52.33706667-193.42293333-27.30666667-34.13333333-61.44-56.88853333-97.84853334-77.36853333-34.13333333-18.2048-70.54186667-34.13333333-104.6752-54.61333334-143.36-84.1952-157.01333333-245.76-88.74666666-357.26186666 15.92853333-25.03146667 38.68373333-43.23626667 54.61333333-63.71626667z" fill="#1296DB" p-id="11802"></path></svg>