<?xml version="1.0" standalone="no"?><!DOCTYPE svg PUBLIC "-//W3C//DTD SVG 1.1//EN" "http://www.w3.org/Graphics/SVG/1.1/DTD/svg11.dtd"><svg t="1668416848945" class="icon" viewBox="0 0 1024 1024" version="1.1" xmlns="http://www.w3.org/2000/svg" p-id="5961" xmlns:xlink="http://www.w3.org/1999/xlink" width="128" height="128"><path d="M424.85760001 465.88586667c-31.3344 0-49.69813333 17.68106667-49.69813334 47.44533333 0 30.5152 17.6128 48.128 48.19626667 48.128 31.3344 0 49.22026667-16.93013333 49.22026667-46.8992-0.06826667-30.65173333-17.68106667-48.67413333-47.7184-48.67413333z" fill="#2C2C2C" p-id="5962"></path><path d="M524.86826667 42.56426667c-260.5056 0-471.6544 211.1488-471.6544 471.6544S264.36266667 985.87306667 524.86826667 985.87306667 996.52266667 774.72426667 996.52266667 514.21866667 785.37386667 42.56426667 524.86826667 42.56426667zM241.42506667 577.91146667c-15.7696 0-39.66293333-4.9152-53.72586666-12.35626667-4.43733333-2.52586667-6.28053333 2.38933333-7.09973334 8.6016h-19.456V529.92h17.6128c3.8912 11.264 9.216 13.5168 14.1312 18.0224 8.53333333 7.85066667 28.8768 13.58506667 47.5136 13.38026667 28.12586667-0.27306667 37.75146667-6.41706667 37.75146667-15.36s-9.55733333-11.0592-40.3456-15.83786667l-26.14613333-4.3008c-29.4912-4.43733333-50.9952-11.0592-50.9952-34.6112 0-24.43946667 27.17013333-39.7312 70.10986666-39.7312 18.09066667 0 33.24586667 2.38933333 47.78666667 10.6496 4.02773333 2.59413333 7.7824 2.93546667 7.7824-6.89493333h18.97813333v42.8032h-17.54453333c-1.57013333-8.53333333-6.89493333-11.8784-11.81013333-16.384-8.8064-8.12373333-27.8528-14.81386667-43.89546667-14.81386667-20.6848 0-38.16106667 6.41706667-38.16106667 15.83786667 0 26.2144 118.3744 5.3248 118.3744 54.8864 0.06826667 25.87306667-25.32693333 40.3456-70.8608 40.3456z m181.4528-0.88746667c-54.0672 0-88.13226667-24.23466667-88.13226666-62.73706666 0-39.25333333 34.6112-63.62453333 89.83893333-63.62453334 53.11146667 0 89.15626667 24.9856 89.15626667 61.71306667-0.06826667 40.7552-33.45066667 64.64853333-90.86293334 64.64853333z m280.23466667-106.0864h-9.0112c-9.28426667 0-12.56106667 2.11626667-12.56106667 8.3968v95.70986667l-27.17013333-0.2048-87.8592-83.21706667v60.416c0 6.07573333 3.2768 8.3968 12.4928 8.3968h12.0832v14.60906667h-71.95306667v-14.60906667h11.94666667c9.28426667 0 12.4928-2.32106667 12.4928-8.3968v-72.704c0-6.21226667-3.2768-8.3968-12.4928-8.3968h-11.94666667v-14.81386666h62.2592l75.43466667 70.72426666 0.4096-47.58186666c0-6.21226667-3.20853333-8.3968-12.4928-8.3968h-10.92266667v-14.81386667h69.35893334v14.88213333z m177.83466667-0.34133333c-9.4208 0-11.19573333 1.4336-24.30293334 18.0224l-35.97653333 38.84373333v23.68853334c0 6.07573333 3.072 8.192 11.81013333 8.192h13.58506667v14.81386666h-87.04v-14.81386666h13.58506667c8.73813333 0 11.81013333-2.11626667 11.81013333-8.192v-23.68853334l-42.3936-46.8992c-7.03146667-8.192-6.00746667-9.96693333-25.53173333-9.96693333v-15.36h78.71146666v15.36h-5.59786666c-5.66613333 0-8.12373333 1.09226667-8.12373334 3.20853333 0 1.77493333 1.77493333 3.20853333 2.8672 4.64213334l21.43573334 23.3472c2.52586667 2.6624 5.66613333 3.00373333 8.53333333-0.34133334l22.7328-24.30293333c1.29706667-1.77493333 1.97973333-3.00373333 1.97973333-4.096 0-1.77493333-1.50186667-2.52586667-6.3488-2.52586667h-5.7344v-15.36h62.12266667v15.36h-8.12373333z" fill="#2C2C2C" p-id="5963"></path></svg>