<?xml version="1.0" standalone="no"?><!DOCTYPE svg PUBLIC "-//W3C//DTD SVG 1.1//EN" "http://www.w3.org/Graphics/SVG/1.1/DTD/svg11.dtd"><svg t="1668416897054" class="icon" viewBox="0 0 1024 1024" version="1.1" xmlns="http://www.w3.org/2000/svg" p-id="6862" xmlns:xlink="http://www.w3.org/1999/xlink" width="128" height="128"><path d="M503.59864889 424.82574222c0.05461333-0.08305778 0.13312-0.15701333 0.18545778-0.24234667-0.20821333-0.98986667-0.37660445-1.85457778-0.45283556-2.47125333 0.09329778 0.90112 0.19114667 1.80679111 0.26737778 2.7136zM696.35413333 635.29756445c0.00682667 0 0.00682667-0.00910222 0.00682667-0.01365334-0.02616889-0.01137778-0.11377778-0.01137778-0.13312-0.04096 0.02844445 0.02844445 0.09671111 0.02844445 0.12515555 0.05461334z m4.93454222 0.61667555c-1.19239111-0.19114667-3.87413333 0.15701333-4.93340444-0.61667555-0.65536 2.25735111 0.33109333 3.10954667 4.93340444 0.61667555zM513.536 8.19427555c-277.18087111 0-501.87150222 224.68949333-501.87150222 501.8680889 0 277.17404445 224.69063111 501.87377778 501.87150222 501.87377777 277.17063111 0 501.87036445-224.69973333 501.87036445-501.87377777 0-277.17859555-224.69973333-501.86808889-501.87036445-501.8680889zM834.10033778 204.24248889c-17.29194667 0.52451555-29.32963555 0.55751111-43.22190223 10.14442666-5.59786667 3.86958222-9.39804445 8.99527111-16.50232888 10.98752-6.36928 1.79313778-13.24487111 0.22072889-19.56408889 2.36430223-22.80334222 7.73916445-19.19089778 56.57941333-49.23505778 49.20206222-14.11413333-3.46225778-24.06058667-20.14094222-31.16373333-31.03175111-6.25777778-9.58236445-17.65262222-17.50698667-9.95555556-29.49916444-3.51118222 0.90112-7.25447111-0.12515555-10.71104 0.53134222 4.8128-10.56881778 20.95559111-9.64494222 23.64074667-15.04711112 6.68899555-13.53728-18.41379555-14.95153778-25.52263111-16.82773333 8.56746667-9.13294222 12.90467555 3.072 21.36177778 0.99896889 8.12828445-2.00021333-4.28942222-12.70442667-9.16366223-13.90705778-1.74990222-0.43235555-30.36728889 7.90869333-13.80352-6.91427555a329499.08707555 329499.08707555 0 0 1-61.33873777-39.10997333c-3.44291555 14.50211555 27.21564445 22.74417778 37.22808888 27.85393777-1.55534222 5.98926222-10.87032889 14.70919111-18.00192 12.15715556-6.71857778-2.40981333-3.99132445-13.54183111-14.13575111-12.42453333-7.24309333 16.84138667 15.31448889 11.91822222 17.41027556 22.23900444 2.38136889 11.75779555-8.52764445 6.77432889-12.72263111 6.57180444-1.00010667-0.05233778-8.82005333-8.14648889-9.24103112-2.01841778-0.50744889 7.27608889 12.47004445 4.43847111 13.38595556 11.78737778-15.11537778 0.61098667-22.83633778-4.84693333-35.14254222-13.02186666-14.36216889-9.53230222-21.73269333-8.67328-39.33070222-8.67328 5.26336-2.16177778 12.51328-3.76376889 17.01432888-7.24536889 2.4576-1.90236445 12.10368-11.27765333 12.73969778-13.37002667 2.72611555-9.03168-0.14791111-8.34673778-8.78933333-14.26773333-7.68113778-5.25425778-16.9984-14.68871111-26.30542222-16.54670223-33.72373333-6.73223111-10.40042667 30.44693333-35.99928889 35.57376 0.43804445 0.02275555 0.91136 0.04323555 1.28796444 0.04323556h-1.46659555c0.06599111-0.00455111 0.11832889-0.02958222 0.17863111-0.04323556-5.92213333-0.21276445-17.02115555-1.65205333-20.83726222 1.47569778-2.69312 2.20046222-2.91953778 11.03530667-5.93123556 14.2336-5.35893333 5.71164445-13.34613333 6.85283555-19.74044444 10.97159112-6.24184889 4.02432-20.00213333 14.34965333-23.66805334 21.35267555-13.50883555 25.81048889 30.43896889 33.82158222 47.10058667 41.36504889 7.52753778 3.41105778 29.52874667 8.07822222 33.62588445 13.77393778 5.49546667 7.64928-4.73656889 14.82069333 6.73905777 20.19783111 3.66478222 1.71235555 11.22304 2.06279111 14.38037333-1.4848 5.12910222-5.78104889-2.08554667-7.08608-3.31434666-13.76369778-2.37909333-12.85461333 1.54168889-7.74599111 8.00768-12.52352 13.17546667-9.728 10.20814222-10.32305778 5.46702222-25.82414222-2.20046222-7.21464889-10.50510222-27.35559111-3.20056889-32.68266667 9.52547555-6.94840889 29.83936 3.76604445 37.14275556 4.66261334 8.4992 1.03992889 13.32565333 12.81820445 17.95754667 17.63555555 3.07768889 3.19829333 8.57998222 9.98513778 13.95484444 9.25013333 8.53219555-1.16736 4.96184889-8.62663111 9.91004444-12.06727111 13.27445333-9.20576 16.77084445 3.30069333 22.06151112 15.80942223 4.97777778 11.74869333 9.68704 16.10979555 18.54577777 23.64529777 4.11420445 3.50776889 22.14343111 16.02787555 20.44245333 23.74542223-1.15256889 5.19964445-21.74862222 13.08330667-27.25660444 14.82865777-20.13184 6.37610667-57.89809778-10.43911111-61.95313778 21.48579556 7.81084445-2.90816 30.02709333-21.05799111 36.69105778-12.45525333 3.03786667 3.90257778-2.40981333 9.58691555-1.1264 13.46332444 3.80017778 11.62012445 12.76245333 7.57191111 22.16163556 5.69344-0.64056889 0.39936-1.29706667 0.74865778-1.99111112 1.05927111 12.84209778-6.59911111 11.50634667-5.22467555 17.39889778-15.92888889 1.92398222-3.49639111 4.78663111-11.95918222 7.49681778-14.46229333 9.33432889-8.58680889 10.77248-2.67377778 16.55466667 3.95036444 1.51438222 1.74535111 15.81169778 22.33116445 10.72241777 21.30488889-16.63089778-3.33482667-32.59733333-2.88768-46.38947555 6.20544-7.94624 5.24856889-15.4624 12.33009778-24.95146667 15.81511111-2.27555555 0.83171555-19.12035555 2.42801778-17.12924444-0.44373333 2.90702222-4.18929778 12.91150222-6.96092445 16.85959111-11.48245334-10.94200889-4.5056-20.06698667 5.44312889-28.66403555 11.26058667-9.12270222 4.31559111-11.24352 12.35968-19.01226667 19.41162667-3.39057778 3.07427555-9.80195555 3.59765333-13.13223111 7.64359111-3.23015111 3.92647111-3.63178667 10.10232889-6.69013334 13.82855111-2.14812445 2.61006222-7.65155555 1.03424-9.89297778 4.96753778-2.91953778 5.13820445 2.67150222 9.91004445 1.44611556 13.61123556-2.24483555 6.72768-15.04028445 12.43591111-19.96003556 17.27829333a85.11943111 85.11943111 0 0 0 1.95242667-1.94104889c-4.93112889 5.17461333-11.17070222 8.97934222-15.02094222 14.96632889 1.76696889 8.45141333 7.34094222 28.61169778 5.78673778 33.24928-5.12910222 15.25873778-15.09034667-8.29895111-19.13059556-14.38492445-13.88088889-20.91463111-41.62332445-6.91996445-60.57528889-5.18371555-24.23921778 2.21752889-47.98008889 33.67367111-33.02968888 59.20768 7.17824 12.24476445 19.2512 16.98588445 33.1002311 14.15168 12.32440889-2.52359111 16.0256-19.76661333 27.63207112-20.08177778 21.32878222-0.56888889 0.46876445 20.90097778-1.37671112 28.78008889-1.70666667 7.29884445 2.66012445 7.97354667 10.17287112 9.78261333 5.54780445 1.32551111 13.40416-2.37454222 18.21354666 0.79303111 3.02990222 2.00021333 2.88426667 12.95132445 7.05080889 9.49703112-8.20337778 6.80049778-6.28622222 22.92394667 2.12423111 28.75164444 9.32522667 6.46826667 20.30478222 0.47786667 30.06919112 2.96163556 18.432 4.70357333 9.63356445-1.40515555 25.82072888-11.1775289 10.92608-6.58432 12.71808 1.24017778 20.18417778 1.27089778 5.08245333 0.02161778 8.31032889-7.30567111 16.80725334-5.17347555 6.92679111 1.74421333 9.66428445 7.09176889 17.93365333 8.32170667 3.39057778 0.50062222 6.89152-1.27544889 10.12394667-0.91932445 15.29628445 1.69984 27.00629333 11.47221333 39.0599111 20.30933333 9.9328 7.27267555 16.51143111 5.79925333 28.1144889 9.11587556 8.47644445 2.41550222 24.11633778 14.68302222 23.31534222 25.45322666-0.14222222 1.92625778-7.55256889 11.61216-8.81891556 15.9744 2.16860445 1.50186667 17.2544-1.86936889 21.66897778-2.18680888-1.45066667 1.68846222-11.72252445 8.90652445-11.72252444 5.07448888 0 1.96380445 7.26698667 5.99836445 9.03850666 7.25105778 5.35893333-17.39662222 14.15964445-6.20202667 24.75121778-1.89326222 9.00551111 3.66819555 20.09088 3.86503111 29.696 6.15310222 8.15331555 1.94104889 26.13475555 7.44675555 32.17635556 14.10844445 7.27267555 8.02133333 2.24597333 21.05116445-3.13571556 29.03153777-7.03943111 10.45845333-17.65489778 14.48391111-22.04558222 26.78897778-3.47022222 9.75416889-0.86471111 19.6096-2.84785778 30.42190222-2.68060445 14.63751111-4.82986667 9.50613333-14.25635556 18.4376889-7.93144889 7.52184889-0.13312 6.21454222-10.93176888 11.00913777-10.84643555 4.81962667-20.39808 3.38602667-27.90855112 15.28718223 0.30037333-0.74865778 0.54613333-1.49845333 0.75548445-2.28124445-3.16984889 4.43392-4.75363555 13.5168-6.25550223 16.49550222-3.78652445 7.60263111-9.00892445 12.39836445-14.99704888 18.73009778-2.29489778 2.42460445-23.39384889 31.24906667-24.61240889 28.93368889-1.56672-3.01283555-18.20216889 3.02421333-18.9952-1.27203556 0.66104889 3.61130667-0.15815111 2.40071111 3.97312 4.48170667-3.82520889 23.68853333-13.84448 27.22133333-37.10634667 27.46026667 2.00021333 11.38574222-8.42979555 9.1136-13.27786666 15.23484444-2.83306667 3.57489778-4.18588445 13.62602667-6.1496889 18.25450667-1.22652445 2.90702222-10.30826667 14.55672889-10.30826666 16.86414222-0.01024 2.12764445 3.05379555 5.24174222 5.92440889 8.22954667-16.39992889 3.24266667-33.12071111 5.50456889-50.10545778 6.88355555 3.18008889-4.00497778 3.94467555-7.52412445-6.18154667-8.00654222 2.71018667-7.36369778 9.07264-11.56323555 11.76917334-18.69482667 1.27886222-3.36554667 0.22072889-4.69560889 1.30161778-8.03043555 3.70574222-11.50862222 2.0992-7.168 0.01024-16.10638223-4.89358222-20.95331555 1.7408-26.68430222 7.45244444-45.86837333 5.86296889-19.71427555 5.31797333-45.27104 9.07491556-66.50652444 1.78176-10.16376889 4.70129778-31.30823111 1.1719111-40.91448889-3.97653333-10.81799111-21.46986667-19.33767111-29.47982222-26.61262222-11.34250667-10.33443555-17.37159111-21.50058667-25.79342222-34.27328-4.27463111-6.48533333-9.14773333-12.85233778-12.48369778-19.90542222-7.13386667-15.08124445 0.00568889-6.10531555 1.20604445-15.0072889 1.14915555-8.60046222-1.024-16.28728889 2.38933333-25.31441777 3.77742222-9.98058667 13.20732445-16.19968 16.30435556-26.26332445 2.78755555-8.95886222 0.66673778-20.21831111-8.53560889-23.20725333-5.12910222-1.67480889-10.78840889 2.18339555-15.94026667 1.33575111-7.18734222-1.16280889-15.32131555-6.52856889-20.96128-10.81685333-7.87228445-5.99836445-10.82254222-15.74570667-19.20568889-21.43232-7.01895111-4.73770667-12.01038222-1.90236445-19.51744-4.11875556-7.83018667-2.30741333-12.66346667-11.96942222-18.97927111-14.99363555-9.47768889-4.53290667-14.81955555 1.97632-24.82517333 0.65991111-8.50830222-1.11388445-21.48579555-10.54378667-29.43658667-14.10730667-16.16668445-7.23626667-26.0096-15.22346667-32.47559111-31.63022222-5.53642667-14.06976-13.60782222-20.63246222-23.11054222-32.35157334-9.62901333-11.87271111-12.64526222-21.99096889-27.48643556-25.15512888-1.74307555-0.37774222 3.63178667 12.46435555 4.18588445 13.49404444 5.30318222 9.82129778 13.26762667 18.7904 19.67331555 27.93472 9.42535111 13.46787555 5.40899555 15.99488-4.17905777 2.97187556-10.96362667-14.8992-23.68625778-29.71306667-33.19694223-45.49176889-3.59537778-5.96309333-2.90474667-9.81902222-8.83484444-15.48060445-5.72984889-5.47043555-13.22780445-8.13511111-18.99747556-13.33816888-20.75989333-18.66865778-24.53390222-43.59168-22.16732444-70.20657778 0.76913778-8.67555555 3.90257778-15.61372445 2.52131555-23.95249778-1.14005333-6.92451555-5.22808889-12.64981333-10.33671111-17.75047111-1.64522667-2.62144-5.77649778-9.07719111-6.01543111-9.48792889-4.71267555-7.82791111-8.37859555-15.52725333-15.86517333-21.95000889-4.29624889-3.70005333-15.41006222-12.34830222-25.87420445-19.59253333 47.01525333-58.63879111 108.53489778-105.10791111 179.11011556-133.96081778 0.56206222 3.54759111 2.08554667 7.08949333 4.36906666 10.48007111 5.80266667 8.60501333 11.33226667 7.92462222 22.65998223 10.30599111-1.21400889 13.14702222-16.58083555 13.25169778-26.9824 11.82606222-12.41656889-1.70439111-25.47939555-5.82883555-36.23480889 5.05287112 5.94033778 3.57262222 22.24583111 17.48309333 20.07836444 2.94684444 11.89432889-0.59392 23.39271111-0.95004445 35.02876445 0.47331556 4.66261333 0.57116445 20.28430222 5.81404445 24.51797333 3.4247111 1.77720889-1.00579555 3.67047111-9.77123555 5.55008-12.46776888-3.31662222 0.01934222-6.87217778-1.65546667-10.17628444-1.33802667 7.70503111-9.86680889 15.38275555-2.12764445 25.18926222 2.41208889-10.79751111 6.56042667-4.39409778 22.28224 6.16106666 9.50727111 8.67100445-10.50510222-2.12081778-18.12138667-13.12995555-24.24263111 11.10129778-13.88544 17.94730667-15.13813333 28.39210667 0.53361778 1.72145778-9.66542222 9.52206222-5.79697778 17.67537778-5.08245334v-2.41777778c-3.58855111 0.08647111-7.42058667-1.97745778-10.9727289-1.60426666 8.30577778-13.25283555 3.00373333-16.27932445 14.87758223-20.60515556 9.45607111-3.44291555 36.43164445-0.23893333 39.75509333-9.12725333-18.87914667 3.66933333-41.68590222 4.54883555-58.71843556 13.13223111-7.34435555 3.70119111-16.09272889 15.38503111-23.42684444 7.79150222-7.51729778-7.79150222 5.37713778-20.31957333 11.97397334-24.13795555h-1.57923556c29.87121778-6.35335111 60.80625778-9.76440889 92.54570666-9.76440889 20.50730667 0 40.66190222 1.51779555 60.44558223 4.22115556-6.84600889 3.59537778-1.78403555 6.02112-6.76977778 9.69614222-9.5232 7.00302222-26.42602667 12.84778667-37.75715555 17.27374222 14.40426667-0.03868445 49.27260445 13.50656 55.98321777-6.69809778-4.65123555-0.71452445-9.28995555-1.43018667-13.93550222-2.14471111 8.68010667-5.75601778 18.36145778-10.41408 28.52636445-13.82855111 91.72764445 18.17144889 173.31996445 64.69859555 235.38688 129.98656-0.44828445-0.01024-0.88860445-0.02161778-1.31754667-0.01024z m81.22595555 176.20536889c0.82488889-1.76355555 2.75456-2.34496 3.55100445-3.80017778 1.67708445-3.06062222 1.30275555-5.13479111 3.36782222-7.76078222 2.20956445-2.83875555 5.19168-3.53393778 7.65724445-5.75146667a8.98616889 8.98616889 0 0 0 2.00590222-2.56113778 439.94680889 439.94680889 0 0 1 17.59459555 63.95107556c-0.12970667 0.15701333-0.20252445 0.39480889-0.36408889 0.52679111-1.07861333 0.85333333-8.11235555 1.89781333-9.55733333 1.94787555-5.09269333 0.19569778-8.87694222-3.18464-12.53376-6.36472888-3.72053333-3.23128889-8.10097778-7.55484445-10.74517333-11.73959112-2.82396445-4.46919111-1.08088889-9.06126222-0.87836445-14.16533333 0.16839111-4.29283555-1.92056889-10.41408-0.09898667-14.28252444z m5.74236445 230.10872889c-8.62094222-7.48885333-18.79153778-17.52860445-24.92074667-27.22929778-6.54677333-10.3424-2.51221333-20.98744889-2.03320889-32.83285334 0.39822222-9.96238222-4.46919111-24.13909333-0.23552-33.10933333 1.94446222-4.096 6.39886222-5.44995555 8.23296-8.8064 3.89802667-7.10542222 3.03445333-11.90798222 7.81767111-18.01671111 5.13137778-6.56042667 12.03086222-8.17493333 17.74819556-13.31996444 5.98812445-5.39306667 5.82200889-9.64835555 9.61308444-16.55921778 2.77390222-5.05514667 9.29336889-13.48266667 15.46581334-17.89041778a445.72672 445.72672 0 0 1 5.09383111 67.26883556c0 39.54915555-5.26222222 77.88088889-15.00728889 114.40355555-8.30919111-2.14243555-15.14382222-8.13169778-21.77479111-13.90819555z" fill="#7DC5EB" p-id="6863"></path></svg>