<?xml version="1.0" standalone="no"?><!DOCTYPE svg PUBLIC "-//W3C//DTD SVG 1.1//EN" "http://www.w3.org/Graphics/SVG/1.1/DTD/svg11.dtd"><svg t="1668417123815" class="icon" viewBox="0 0 1024 1024" version="1.1" xmlns="http://www.w3.org/2000/svg" p-id="11950" xmlns:xlink="http://www.w3.org/1999/xlink" width="128" height="128"><path d="M512 32c264 0 480 216 480 480S776 992 512 992 32 776 32 512 248 32 512 32z m132 708c-30 18-42 54-24 90s54 42 90 24C740 836 752 800 734 764s-60-42-90-24zM512 698c-30 0-54-6-78-18L392 758c60 30 132 36 198 18 6-48 54-84 102-72 6 0 12 0 18 6 48-48 78-114 84-180H704c-12 96-96 168-192 168zM326 512c0-66 30-120 78-156l-48-78c-54 36-96 96-114 162 18 18 36 42 36 72s-12 54-36 72c18 66 60 126 114 162l48-78c-48-36-78-96-78-156zM188 446c-36 0-66 30-66 66s30 66 66 66S254 548 254 512c-6-36-36-66-66-66zM512 326c96 0 180 72 186 168h90C782 428 752 362 704 314c-48 18-96-6-114-54 0-6-6-12-6-18-24-6-48-12-72-12-42 0-84 12-126 30l42 78c30-6 54-12 84-12z m132-42c30 18 72 6 90-24S740 188 704 176c-30-18-66-6-84 24s-6 66 24 84z" fill="#E0620D" p-id="11951"></path></svg>