<?xml version="1.0" standalone="no"?><!DOCTYPE svg PUBLIC "-//W3C//DTD SVG 1.1//EN" "http://www.w3.org/Graphics/SVG/1.1/DTD/svg11.dtd"><svg t="1668416892266" class="icon" viewBox="0 0 1024 1024" version="1.1" xmlns="http://www.w3.org/2000/svg" p-id="6713" xmlns:xlink="http://www.w3.org/1999/xlink" width="128" height="128"><path d="M331.817 0c27.813 7.969 57.349 12.298 83.152 24.509 140.65 66.558 178.1 220.557 87.014 350.514-32.106 45.812-76.281 77.477-122.33 107.341-34.343 22.274-69.47 43.703-101.72 68.756-69.977 54.365-109.711 125.728-109.558 215.82 0.19 112.988 65.549 206.908 169.338 246.762 4.619 1.771 7.99 6.788 11.943 10.293h-32.112c-26.148-4.815-52.627-8.3-78.387-14.676C132.709 982.97 60.13 916.8 21.184 815.442 9.307 784.528 6.8 750.017 0 717.152v-21.407c0.995-6.982 2.261-13.944 2.942-20.958 4.239-43.697 13.526-86.842 37.934-123.215 31.308-46.659 67.621-89.948 101.478-134.912 19.244-25.561 40.585-50.045 56.22-77.708 29.587-52.348 22.278-111.232-14.518-148.745-36.206-36.913-93.732-44.198-147.133-18.237-10.341 5.029-20.008 11.447-29.985 17.224 1.162-9.37 4.629-16.564 8.89-23.253 39.484-61.982 93.835-107.5 160.61-136.394C208.626 15.619 244.238 9.6 278.298 0h53.52zM463.83 1023.994c6.664-4.864 12.763-10.902 20.078-14.404 75.946-36.357 120.826-95.22 126.29-179.97 5.456-84.718-40.295-163.764-112.745-196.704-84.55-38.437-163.977-29.84-236.149 30.683-4.02 3.37-7.861 6.951-15.165 9.008 2.119-5.898 3.472-12.22 6.467-17.635 45.34-81.95 135.588-120.591 234.952-100.827 150.075 29.85 247.093 175.995 217.184 327.443-3.317 16.776-7.771 33.33-12.088 51.65 55.188 5.93 109.55 14.07 138.474 75.815-34.567 2.767-65.661 6.042-96.84 7.561-46.87 2.286-93.804 3.271-140.702 5-6.404 0.233-12.767 1.558-19.148 2.38H463.83z m560.164-338.953c-51.19-18.688-98.71-7.609-145.933 15.475-34.979 17.099-72.627 22.882-110.847 10.982-7.567-2.36-15.692-8.871-19.734-15.725-73.31-124.4-178.487-194.376-326.116-192.883-3.277 0.031-6.558-0.354-9.836-0.548-0.43-1.683-0.855-3.369-1.282-5.052 12.732-4.136 25.211-9.506 38.243-12.195 63.251-13.056 125.216-4.239 186.721 12.012 49.372 13.045 94.57 35.106 136.981 62.984 47.721 31.37 99.833 49.216 156.654 53.78 7.095 0.571 14.145 1.808 21.185 2.947 33.772 5.457 60.362 20.814 73.965 53.951l-0.001 14.272zM546.628 433.099c34.857-16.048 70.483-30.641 104.337-48.584 28.719-15.216 55.479-34.153 82.92-51.738 10.773-6.906 14.719-16.794 14.844-30.108 0.342-36.104 7.95-70.766 26.653-102.222 4.45-7.48 10.164-14.202 16.104-22.391 26.384 23.505 37.951 53.15 45.396 84.316 3.167 13.271 8.886 19.501 21.662 24.038 120.915 42.892 163.762 150.246 160.971 245.414-0.174 5.93-7.772 14.878-13.779 16.896-52.146 17.536-104.034 16.407-154.152-7.506-49.229-23.483-97.023-50.205-147.14-71.529-47.098-20.045-97.162-31.246-148.956-31.878-2.745-0.03-5.484-0.63-8.224-0.965-0.214-1.249-0.423-2.496-0.636-3.743zM398.96 669.996c83.173 0.077 149.929 66.55 150.002 149.368 0.073 82.749-66.512 149.562-149.544 150.064-83.514 0.498-151.015-66.873-150.783-150.497 0.23-82.893 66.962-149.01 150.325-148.935z m66.053 149.714c0.021-37.119-30.139-67.512-66.611-67.128-36.731 0.383-66.809 30.981-66.55 67.695 0.252 35.488 30.674 66.053 66.23 66.533 36.394 0.496 66.91-30.1 66.931-67.1z" fill="#FA6425" p-id="6714"></path></svg>