<?xml version="1.0" standalone="no"?><!DOCTYPE svg PUBLIC "-//W3C//DTD SVG 1.1//EN" "http://www.w3.org/Graphics/SVG/1.1/DTD/svg11.dtd"><svg t="1668417640071" class="icon" viewBox="0 0 1024 1024" version="1.1" xmlns="http://www.w3.org/2000/svg" p-id="13686" xmlns:xlink="http://www.w3.org/1999/xlink" width="128" height="128"><path d="M921.144 746.104c-1.262 3.833-20.996 72.664-69.48 143.44-41.966 61.053-85.359 122.6-153.892 123.681-67.397 1.184-88.963-40.214-165.912-40.214-76.852 0-101.01 39.133-164.705 41.398-65.846 2.695-116.514-66.69-158.636-127.445-86.09-124.457-152.375-352.68-63.474-505.63 43.739-76.525 122.358-125.168 207.972-126.497 64.518-1.22 125.902 43.705 165.089 43.705 40.257 0 114.514-54.36 192.853-46.227 32.8 1.398 124.545 13.713 183.656 99.386-4.65 3.164-109.775 65.201-108.604 191.463 1.58 152.428 133.71 202.42 135.133 202.94M659.695 170.667c35.326-43.091 58.54-102.326 52.433-161.152-50.439 1.978-111.893 33.496-148.418 76.334-32.293 37.372-60.756 97.53-52.817 155.672 56.042 3.404 113.665-29.348 148.802-70.854" fill="#8A8A8A" p-id="13687"></path></svg>