<?xml version="1.0" standalone="no"?><!DOCTYPE svg PUBLIC "-//W3C//DTD SVG 1.1//EN" "http://www.w3.org/Graphics/SVG/1.1/DTD/svg11.dtd"><svg t="1668417645489" class="icon" viewBox="0 0 1024 1024" version="1.1" xmlns="http://www.w3.org/2000/svg" p-id="13835" xmlns:xlink="http://www.w3.org/1999/xlink" width="128" height="128"><path d="M512 0L392.533 119.467h85.334v298.666L512 452.267l38.4-38.4v-294.4h81.067L512 0z m55.467 136.533v264.534L738.133 230.4l-89.6-89.6c0-4.267-81.066-4.267-81.066-4.267z m106.666 0l85.334 85.334 4.266 4.266-4.266 4.267-192 196.267V460.8H601.6l192-192 4.267-4.267 4.266 4.267 85.334 85.333V140.8c0-4.267-213.334-4.267-213.334-4.267z m-537.6 0V345.6l81.067-81.067 4.267-4.266 4.266 4.266 192 192h34.134v-29.866l-187.734-192-4.266-8.534 4.266-4.266L345.6 140.8l-209.067-4.267z m238.934 0l-89.6 89.6L460.8 401.067V136.533h-85.333z m422.4 149.334L627.2 456.533h260.267v-81.066l-89.6-89.6z m-571.734 0l-89.6 89.6V460.8H396.8L226.133 285.867zM119.467 392.533L0 512l119.467 119.467v-85.334h298.666L452.267 512l-38.4-38.4h-294.4V392.533z m785.066 0V473.6H605.867L571.733 512l34.134 34.133h298.666v85.334L1024 512 904.533 392.533z m-768 170.667v85.333l89.6 89.6L401.067 563.2H136.533z m290.134 0l-192 192-4.267 4.267-4.267-4.267-81.066-81.067V883.2h209.066l-81.066-81.067-4.267-4.266 4.267-4.267 192-192v-34.133l-38.4-4.267z m140.8 0v38.4l192 192 4.266 4.267-4.266 4.266L678.4 883.2h213.333V674.133L806.4 759.467l-4.267 4.266-4.266-4.266L597.333 563.2h-29.866z m55.466 0l174.934 174.933 89.6-89.6V563.2H622.933zM512 571.733l-34.133 34.134v298.666h-89.6L512 1024l119.467-119.467h-85.334v-294.4c4.267 0-34.133-38.4-34.133-38.4z m-51.2 51.2L285.867 797.867 371.2 883.2h85.333V622.933h4.267z m106.667 4.267v260.267H652.8l85.333-85.334L567.467 627.2z" fill="#F4EA2A" p-id="13836"></path></svg>