<?xml version="1.0" standalone="no"?><!DOCTYPE svg PUBLIC "-//W3C//DTD SVG 1.1//EN" "http://www.w3.org/Graphics/SVG/1.1/DTD/svg11.dtd"><svg t="1668417651023" class="icon" viewBox="0 0 1024 1024" version="1.1" xmlns="http://www.w3.org/2000/svg" p-id="13984" xmlns:xlink="http://www.w3.org/1999/xlink" width="128" height="128"><path d="M258.008 446.994L111.997 192.986q71.005-90.013 175.994-141.5T511.984 0q138.012 0 255.48 67.998T952.962 251H534.96q-11.007-0.992-23.007-0.992-90.013 0-160.987 55.486t-92.99 141.5z m436.978-122.012h294.007Q1024 414.995 1024 511.984q0 103.005-39.999 197.498T876.517 872.485t-161.5 109.5T518.033 1024l208.985-362.997q47.007-67.006 47.007-148.987 0-110.013-79.006-187.002z m-368.98 187.002q0-76.99 54.494-131.484t131.484-54.494T643.468 380.5t54.494 131.484-54.494 131.484-131.484 54.494T380.5 643.468t-54.494-131.484z m255.992 252.984l-146.012 252.984q-122.012-18.015-222.009-88.989T56.99 747.977 0 511.984q0-135.004 66.014-251l208.985 362.005q32 67.997 95.997 109.5t140.988 41.503q35.999 0 70.014-8.992z" fill="#F4EA2A" p-id="13985"></path></svg>