<?xml version="1.0" standalone="no"?><!DOCTYPE svg PUBLIC "-//W3C//DTD SVG 1.1//EN" "http://www.w3.org/Graphics/SVG/1.1/DTD/svg11.dtd"><svg t="1668417775758" class="icon" viewBox="0 0 1024 1024" version="1.1" xmlns="http://www.w3.org/2000/svg" p-id="2839" xmlns:xlink="http://www.w3.org/1999/xlink" width="128" height="128"><path d="M824.522446 439.907151c0.819561 27.105468-8.215595 40.25042-16.43119 64.078646l-14.783075 7.396034c-11.504832 23.81823 1.639121 14.784074-7.396034 33.682942-18.890872 16.43219-56.68361 52.575812-69.007003 55.865049-9.035156-0.819561 5.746919-10.674277 8.215595-14.783075-25.467346 17.250751-20.538988 26.285907-59.140293 36.140624l-0.819561-2.468676c-95.294909 45.178778-227.552002-43.539657-225.901886-164.291918-0.819561 7.397034-2.468676 5.747918-4.928358 8.217594-4.927358-61.610968 28.756583-124.043496 85.429199-149.508843 55.864049-27.927027 120.75426-16.431191 160.185119 20.539988-21.360548-28.756583-64.899205-59.152287-116.655457-55.86305-50.106136 0.818561-97.752592 32.863381-113.365221 67.357887-25.468346 16.431191-28.756583 62.430529-40.25142 71.465685-14.782075 110.896545 28.756583 159.364559 102.690944 216.04717 11.504832 7.396035 3.288237 9.036155 4.927358 14.783074-24.648785-11.505831-46.826895-28.756583-65.717766-50.106136 9.854717 14.782075 20.538988 28.745589 34.503501 39.43086-23.817231-8.217594-54.213934-55.86305-63.250089-58.321732 39.43086 71.464685 161.833236 125.690613 225.083325 98.583146-29.576143 0.819561-66.539326 0.819561-100.222267-11.503832-13.962514-7.397034-32.86438-22.180109-29.577143-24.649785 87.898875 32.032826 177.435871 24.648785 253.011352-36.142622 18.889873-14.783074 40.25142-40.25142 46.007334-40.25142-9.035156 13.142954 1.639121 6.566479-5.746919 18.071311 19.709433-30.394704-8.215595-12.323393 19.709433-52.573813l10.685272 13.962514c-4.107798-25.467346 32.034825-56.68361 27.927027-96.934031 8.217594-12.324392 9.035156 13.143953 0.819561 41.889542 12.323393-32.033826 3.288237-36.962183 6.566479-63.24909 3.288237 9.035156 7.396035 18.070312 9.854717 27.927027-8.215595-31.215264 7.397034-51.756252 11.505831-69.828562-4.107798-1.639121-12.324392 13.963514-13.962514-22.17811 0.817562-15.602635 4.927358-8.216595 5.746919-12.325392-2.468676-1.639121-10.674277-13.142954-15.613629-36.142623 3.289237-5.746919 9.037155 13.964513 13.964513 14.783075-2.470675-18.889873-8.217594-32.86438-8.217594-46.825895-13.962514-29.577143-4.928358 4.107798-16.431191-12.325392-15.614628-46.827894 12.323393-11.503832 13.961515-32.04482 22.99867 32.86438 36.142623 83.790077 41.889541 105.150625-4.927358-26.287906-11.503832-50.925697-20.538988-75.575481 6.566479 3.288237-11.505831-52.574813 9.035156-15.613629-22.17811-79.68128-92.826233-153.616641-157.725438-188.119143 8.216595 7.396035 18.072311 16.43219 14.784073 18.07231-32.86438-19.710433-27.107467-21.360548-31.215264-28.746588-26.287906-10.674277-27.928027 0.818561-46.009333 0-49.284577-26.286907-59.140293-23.828225-104.329066-40.251419l1.639122 9.854716c-32.853386-11.503832-37.781744 4.107798-73.934362 0-1.640121-1.649116 11.503832-6.576474 22.99767-8.215595-32.033826 4.107798-30.393705-5.746919-61.608969 1.639121 7.446008-5.72693 15.652608-9.015167 23.869203-13.943524-25.468346 1.639121-61.611968 15.61263-50.926697 3.288237-41.900536 18.891871-116.654458 45.179778-159.364559 84.609638l-0.819561-9.035156c-19.709433 22.99767-84.608639 69.826564-89.537995 99.402707l-4.927359 1.649115c-10.685271 16.431191-17.250751 36.142623-24.648785 53.394374-13.142954 22.179109-19.720427 8.217594-17.250751 12.324392-26.287906 52.574813-39.431859 96.115469-50.107136 132.258093 8.215595 11.503832 0 71.464685 3.288237 118.293579-13.153948 234.930046 164.281923 462.482048 358.148985 515.05786 28.745589 9.854717 70.647124 9.854717 106.788747 10.684272-42.719097-12.324392-47.647455-6.566479-89.537996-20.540987-29.575144-14.782075-36.142623-30.393705-57.502171-48.466016l9.035156 14.784074c-41.888542-14.784074-24.647786-18.891871-58.321732-28.757583l9.035156-12.323393c-13.142954-0.819561-35.321063-22.180109-41.889542-34.504501l-13.962514 0.818562c-18.070312-22.179109-27.105468-37.792738-26.286907-50.106137l-4.927358 9.035156c-5.748918-9.035156-64.899205-82.149957-34.504501-64.898206-5.747918-4.928358-13.143953-8.217594-21.360548-23.81923l6.576474-7.396034c-14.783074-18.891871-27.926028-43.539657-27.105468-51.756252 8.215595 10.674277 13.962514 13.142954 18.889873 14.792069-36.962183-92.825233-39.43086-4.927358-67.356888-94.474349l5.746919-0.81956c-4.928358-6.576474-7.396035-14.782075-11.503832-22.17811l3.288237-25.468346c-27.105468-31.215264-8.215595-133.077653-4.107798-188.940702 2.469676-22.180109 22.999669-46.828893 37.782743-84.609638l-9.036155-1.649116c17.250751-30.395704 100.222268-123.220937 138.823572-118.293579 18.071311-22.999669-4.107798 0-7.396035-5.748918 41.07098-42.719097 53.395373-30.393705 81.330397-37.791738 29.576143-17.250751-25.467346 6.576474-11.503833-6.56648 50.935692-13.142954 36.140624-29.576143 103.510505-36.142623 6.566479 3.288237-16.43219 5.746919-22.179109 10.684272 42.718097-20.538988 134.725769-15.61263 195.505183 12.325392 69.828563 32.032826 147.870722 128.967856 151.159958 219.335407l3.288237 0.819561c-1.639121 36.141623 5.746919 78.043159-7.396035 116.643463l9.034157-18.070312z" fill="#D70A53" p-id="2840"></path></svg>