<?xml version="1.0" standalone="no"?><!DOCTYPE svg PUBLIC "-//W3C//DTD SVG 1.1//EN" "http://www.w3.org/Graphics/SVG/1.1/DTD/svg11.dtd"><svg t="1668417676617" class="icon" viewBox="0 0 1024 1024" version="1.1" xmlns="http://www.w3.org/2000/svg" p-id="14482" xmlns:xlink="http://www.w3.org/1999/xlink" width="128" height="128"><path d="M693.35 148.366c25.26-25.258 262.827-175.218 316.758-121.06 53.93 53.931-95.801 291.5-121.06 316.758-25.258 25.259-89.657 2.048-143.587-52.11-54.159-53.93-77.597-118.33-52.11-143.588zM252.348 84.423c-82.603-46.876-200.022-98.987-237.34-61.44-37.775 37.774 16.156 157.924 63.487 240.526 42.098-73.273 101.945-134.94 173.853-179.086z m675.385 240.981c7.509 25.714 6.144 47.104-6.144 59.392-46.194 46.194-199.111-61.44-248.719-159.516-40.96-73.5-25.258-121.515 33.906-110.82 12.97-8.192 27.99-17.294 44.601-26.396-67.811-35.271-144.725-55.296-226.418-55.296-271.018 0-490.61 219.591-490.61 490.61 0 270.79 219.592 490.61 490.61 490.61s490.61-219.592 490.61-490.61c0-87.382-22.983-169.53-63.033-240.754-8.874 15.929-17.294 30.265-24.803 42.78z" fill="#D81E06" p-id="14483"></path></svg>