<?xml version="1.0" standalone="no"?><!DOCTYPE svg PUBLIC "-//W3C//DTD SVG 1.1//EN" "http://www.w3.org/Graphics/SVG/1.1/DTD/svg11.dtd"><svg t="1668417796534" class="icon" viewBox="0 0 1186 1024" version="1.1" xmlns="http://www.w3.org/2000/svg" p-id="3505" xmlns:xlink="http://www.w3.org/1999/xlink" width="148.25" height="128"><path d="M1182.792 627.727c-20.014 5.886-29.196 1.883-38.38-16.247-4.237-8.005-7.298-16.717-12.714-24.016-4.238-5.416-9.654-9.89-16.01-12.48-4.945-2.119-7.065-4.238-8.006-9.653-5.651-36.26-17.895-69.46-42.383-97.715-9.182-10.36-15.54-22.132-13.891-36.73 0.235-2.59 1.177-4.945 2.825-6.829 8.712-8.241 9.89-11.302 4.003-21.662-10.36-17.895-20.72-36.025-37.673-49.21-5.18-4.003-9.419-8.712-12.95-14.128-7.3-11.537-4.003-22.368 8.005-28.49 4.71-2.355 9.89-3.767 14.363-6.357 3.767-2.59 7.064-5.416 10.36-8.477l-1.648-2.59c-5.18 0.707-10.36 1.413-15.305 2.355s-10.36 2.354-15.54 2.59c-14.127 0.942-18.836-5.651-11.773-18.13 6.593-11.302 13.892-22.369 22.133-32.493 8.006-10.125 17.189-19.072 25.43-29.197 1.883-2.354 0.706-6.828 1.177-10.125-3.297-0.235-6.828-0.235-10.125 0.236-2.119 0.942-4.238 2.119-5.886 3.767-20.25 13.657-42.618 23.546-66.399 29.197-4.003 0.942-10.831-0.471-12.95-3.297-4.003-5.65 0.942-10.124 5.65-13.656 3.297-2.355 6.594-4.945 9.42-7.77a34.493 34.493 0 0 0 4.237-8.947l-2.354-1.649-9.89 4.945c-5.415 2.825-11.066 5.415-16.717 7.3-10.124 3.06-16.953-3.062-15.304-13.422 0.706-3.767 1.883-7.3 3.296-10.83 2.119-5.416 5.65-10.361 7.064-16.012 0.941-3.532-1.178-7.77-1.884-11.773-3.532 1.413-7.77 2.12-10.36 4.71-4.238 4.238-7.3 9.889-11.067 14.833a21.414 21.414 0 0 1-4.944 4.238c-1.648-2.119-4.945-4.709-4.71-6.592 0.707-4.474 2.59-8.712 5.18-12.244 4.004-5.416 9.654-9.654 13.422-15.07 1.413-2.118 0-6.121 0-9.418-2.826 0.707-6.358 0.471-8.241 1.884-6.828 5.18-12.715 11.537-19.543 16.482-8.712 6.357-15.54 3.767-15.305-6.828a263.205 263.205 0 0 1 5.651-43.089c2.12-10.36 6.593-20.014 8.948-30.138 0.706-3.061-2.355-6.828-3.768-10.36-2.825 1.883-6.593 3.296-8.476 5.886-2.355 3.061-3.297 7.535-4.71 11.302-7.534 19.778-20.484 35.318-36.966 48.033-9.89 7.77-17.188 4.474-18.836-8.005-1.178-9.183-0.471-18.601-1.178-28.02-0.235-3.296-2.354-6.592-3.532-9.889-2.119 2.59-4.944 4.945-6.121 8.006-2.826 7.063-4.003 14.833-7.3 21.426-4.238 8.477-11.302 9.418-16.246 1.648-4.003-6.357-6.357-13.42-7.3-20.955-1.177-8.712 0.236-17.66-0.47-26.371-0.707-9.419-5.651-16.247-15.54-19.543-1.178 2.354-2.12 4.944-3.061 7.534-3.768 12.715-7.535 25.194-11.302 37.909-2.12 7.299-6.122 8.476-10.831 2.59-3.297-3.767-5.416-8.241-6.357-13.186-0.236-7.299 0.235-14.598 1.412-21.662 0.471-3.767 4.003-8.476-2.354-9.889-1.413-0.235-4.71 4.238-6.122 7.064-3.767 7.534-6.358 15.775-10.596 22.84s-10.36 6.827-13.42-0.472c-4.474-11.302-8.006-22.84-10.125-34.847-2.355-14.128-2.59-28.49-4.71-42.853-0.706-4.474-3.767-8.712-5.886-13.186l-3.06 0.942c-1.649 4.709-3.062 9.418-4.004 14.127-2.354 15.305-3.531 30.845-6.592 45.914-2.12 10.125-5.887 20.014-10.831 29.432-4.003 7.77-11.538 7.064-15.776-0.706-2.59-4.474-3.532-9.89-5.18-14.834-2.355-6.357-4.71-12.479-14.127-14.127 2.119 13.892 3.767 26.842 5.65 39.792 1.178 7.534-0.706 8.947-8.005 6.593-8.476-2.826-12.244-9.89-14.598-17.424-3.532-10.831-5.887-22.133-9.89-32.729-2.119-5.886-6.357-11.066-10.36-17.659-9.418 10.36-8.947 20.72-8.005 30.845 0.942 11.773 2.59 23.31 3.296 34.848 0.236 3.06-1.648 6.357-2.59 9.653-3.767-1.177-8.005-1.412-11.066-3.532a24.81 24.81 0 0 1-6.357-9.182c-2.355-5.416-3.532-11.302-6.122-16.482-2.59-4.474-5.651-8.712-9.183-12.715l-3.296 1.648c0.706 10.831 1.412 21.898 2.354 32.729 0.706 8.712-0.942 10.36-9.654 8.24-12.714-3.06-23.545-11.066-30.609-21.897-8.712-13.185-16.246-27.077-24.723-40.498-2.825-4.003-6.357-7.3-10.36-10.125-2.12-0.706-4.474-0.706-6.357 0.471-0.942 0.47-0.942 3.767-0.471 5.415 2.119 6.593 4.709 13.186 6.593 20.014 4.709 16.718 10.124 33.67 13.656 50.623 1.177 6.122-1.648 13.892-4.474 19.779-4.002 8.005-9.889 9.183-16.482 3.296-5.415-5.18-9.653-11.537-12.714-18.13-4.945-9.89-8.006-20.72-12.95-30.61s-11.067-11.301-23.075-7.063c0.706 6.828 1.884 13.656 3.532 20.25 5.18 18.6 11.066 36.966 16.01 55.567 0.943 3.296-1.412 7.535-2.118 11.302-4.003-0.707-8.006-1.648-12.009-3.061-2.119-0.942-3.767-3.532-5.415-5.651-3.532-5.416-7.535-10.36-11.773-15.305-3.06-3.06-7.534-4.473-11.302-6.592l-2.354 2.59c4.944 11.066 10.124 22.132 15.069 33.199 5.65 12.715 0.47 20.956-13.186 18.836a62.844 62.844 0 0 1-26.135-11.066c-12.009-9.418-21.898-20.956-32.964-31.316-3.532-3.296-7.77-8.712-13.421-3.296-5.18 4.944-0.236 9.183 2.59 12.95 4.709 5.886 10.595 11.066 15.069 17.188 10.36 13.657 22.133 27.078 24.252 44.972 0.47 4.945-1.884 12.715-5.651 15.07s-11.537 1.412-16.011-1.178c-10.831-6.357-20.485-14.598-31.08-21.426-8.477-5.416-17.424-10.36-26.607-15.07-3.296-1.648-7.77-4.473-10.36 1.178-2.354 4.945-5.65 9.654-0.47 15.305 13.656 15.54 27.077 31.55 40.733 47.326 1.884 2.12 3.532 4.474 5.416 6.829l-1.413 1.648-39.086-17.189-1.648 2.12c2.59 2.825 4.945 5.65 7.535 8.476 4.944 5.415 10.595 10.125 14.598 16.246 5.18 7.77 2.354 14.128-7.064 15.07a68.738 68.738 0 0 1-25.9-2.12c-9.654-3.06-18.366-8.947-27.548-13.185-7.77-3.767-16.012-7.064-24.252-9.654-2.355-0.706-7.064 0.236-8.477 2.12-1.413 1.883 0 6.121 1.413 8.476 2.825 3.767 6.122 7.064 9.654 10.124 15.304 15.305 30.844 30.374 46.149 45.679 0.706 0.706 0.706 2.355 1.177 4.003h-42.382c2.355 1.648 4.71 3.06 7.064 4.473 10.124 4.71 20.25 8.948 30.138 14.128 2.355 1.177 5.416 4.944 5.416 7.299-1.178 25.194-8.006 29.432-31.551 20.485a11.461 11.461 0 0 0-1.649-0.707c-8.005-3.296-16.01-8.24-24.252-9.653-4.944-0.942-12.008 2.119-15.775 5.886-4.71 4.474-0.471 10.125 3.296 13.656 4.71 4.474 9.89 8.477 15.305 12.244 9.889 6.828 20.485 12.715 29.667 20.014 7.77 6.122 5.651 14.127-4.002 17.188-4.003 1.178-8.006 1.413-12.009 0.942-9.182-1.177-18.365-3.06-27.784-4.238-3.06 0-6.121 0-9.182 0.47l-0.236 2.59c3.061 1.414 5.887 3.062 8.948 4.475 10.36 4.709 21.19 8.24 31.08 13.891 4.473 2.59 9.183 8.477 9.654 13.422 1.648 13.42-6.829 22.603-17.424 29.196-9.419 5.887-16.482-0.706-23.546-6.357-2.825-2.12-5.18-4.71-8.005-6.828-19.308-14.599-38.38-29.668-58.158-43.795-19.308-13.421-40.97-16.953-62.632-7.535-19.072 8.476-36.966 19.543-55.567 29.432-1.178 0.706-2.59 3.296-2.12 4.003 0.942 1.648 2.59 2.825 4.474 3.296 3.532 0 7.064-0.47 10.36-1.412 7.535-2.355 15.07-4.003 21.898 0.941 6.122 4.003 11.537 8.712 16.717 14.128 9.183 10.124 17.66 21.19 26.371 31.786 37.438 46.15 63.809 97.715 76.995 155.872 3.767 17.189 3.531 32.964-15.305 41.912-1.413 0.706-3.061 3.296-2.826 4.709 0.707 1.884 2.355 3.06 4.239 3.532 4.944-0.236 9.889-0.707 14.598-1.884 35.554-7.535 63.809-22.84 71.108-62.631 1.648-8.477 5.415-17.189 15.304-22.369 6.122 13.657 12.95 26.136 17.424 39.557 1.884 5.65 0.236 13.656-2.354 19.307-3.768 8.006-10.125 15.07-15.305 22.369-2.825 4.003-6.593 7.534-8.947 11.773-1.178 2.119 0 5.415 0 8.005 2.59-0.47 5.65-0.235 7.534-1.413 2.826-1.883 4.71-5.415 7.535-7.063 8.24-5.18 16.482-10.831 25.665-14.363 5.18-2.355 11.537-0.236 13.892 5.18 0.47 0.942 0.706 2.119 0.941 3.296 1.413 8.712 3.532 18.837 0.707 26.371-7.77 20.956-17.895 41.205-27.078 61.69-1.883 4.003-3.532 8.005-4.709 12.244-0.235 2.119 0.706 4.238 2.355 5.886 0.942 0.706 4.002 0 5.415-1.177 3.297-2.826 6.122-6.122 8.948-9.654 11.772-16.01 25.664-29.667 43.324-39.086 8.947-4.944 16.481-3.767 24.252 3.061 9.889 8.712 11.537 19.308 7.063 31.08-3.767 9.89-8.005 19.543-11.537 29.433-1.884 4.944-3.297 10.83 3.06 13.891s10.36-1.648 13.422-6.592c1.177-1.648 1.648-3.768 2.825-5.416 5.887-8.005 11.538-16.01 18.13-23.31 2.826-2.355 6.593-3.296 10.36-2.59 20.014 4.474 33.435 23.31 31.316 43.795-1.413 15.07-4.473 30.138-6.593 45.208-1.177 6.828-1.883 13.891-2.354 20.955 0 2.59 2.59 5.416 3.767 8.241 2.355-1.648 5.651-2.825 7.3-5.18 2.59-3.767 4.002-8.476 6.592-12.48 9.654-14.833 19.543-29.667 29.668-44.265 5.18-7.3 12.714-7.77 20.249-3.767s8.947 10.595 7.299 18.13-4.003 14.834-4.945 22.368c-0.47 4.239 0 9.89 2.355 13.186a18.873 18.873 0 0 0 11.773 5.886c2.119 0.236 5.65-4.238 6.828-7.299 4.71-10.595 8.476-21.662 12.95-32.493 0.707-1.884 2.826-4.238 4.474-4.238 13.892-1.413 31.08 10.125 33.2 24.723 3.296 23.31 4.944 47.091 6.592 70.637 0.47 5.65 0 11.066 6.593 12.244s7.063-5.416 8.712-9.89c6.121-16.482 12.008-32.964 18.365-49.21 2.355-6.357 5.651-12.244 10.125-17.424 8.24-9.418 18.836-8.005 23.78 3.532 2.826 7.3 4.71 15.07 5.652 22.84 1.648 9.653 2.59 19.307 4.003 28.96l3.06 0.471c15.776-14.833 13.186-35.789 16.247-54.861 17.188-1.177 20.25 0 26.136 14.598 8.24 19.779 15.069 39.792 22.368 59.806 2.12 5.416 4.003 11.067 6.122 17.424 8.947-5.886 8.005-13.892 8.712-20.72 1.884-15.54 2.825-31.551 5.886-46.856 2.355-12.48 5.416-25.43 21.191-29.197 5.651-1.177 8.241-1.177 10.125 4.945 4.474 14.127 9.89 28.02 15.54 41.911 2.355 5.416 6.593 10.36 13.657 8.477s8.711-8.006 7.534-14.834c-2.119-13.657-4.473-27.078-6.593-40.734-1.177-8.476 0.471-11.066 8.477-8.241 11.066 4.003 22.604 8.476 31.551 16.011 12.008 10.125 21.427 23.075 32.493 34.612 4.238 4.474 9.418 8.006 14.834 12.95 0.47-1.177 0.942-2.354 1.177-3.532-7.3-25.9-14.598-51.565-21.662-77.465-0.47-2.825 0.235-5.886 2.12-8.005 7.063-5.651 14.597-10.831 22.368-15.54 16.01-9.654 22.603-8.006 33.434 7.534 5.887 8.477 12.244 16.482 19.072 24.252 4.238 5.416 12.244 6.358 17.66 1.884l0.706-0.707c5.886-4.944 2.59-10.595-0.706-15.54-6.122-8.947-12.715-17.659-18.366-26.842-4.238-6.828-9.183-14.598-3.532-22.839 6.357-8.947 14.834-15.305 26.842-13.656 20.25 2.59 39.086 11.066 54.39 24.722 6.122 5.651 11.302 6.122 18.366 2.355-1.884-10.595-8.476-17.895-15.54-24.958s-14.598-13.657-21.662-20.485c-7.535-6.828-11.066-17.188-9.418-27.078 1.177-9.182 6.828-12.714 15.304-9.182 4.945 2.119 9.419 4.709 14.363 6.122 2.12 0.706 6.122 0.706 7.064-0.707 1.177-2.354 1.413-5.18 0.47-7.77-2.354-5.886-5.886-11.537-8.24-17.424-1.648-4.238-1.884-8.712-3.296-15.304 3.06 0.706 6.121 1.883 9.182 3.296 8.712 5.416 17.189 11.302 25.9 16.247 4.003 2.354 8.712 3.06 13.186 4.473-1.648-4.473-3.767-8.947-6.357-12.95-3.768-5.415-9.183-10.125-12.95-15.54-6.593-9.418-5.887-12.008 2.354-20.25 15.305-15.304 30.61-30.609 45.679-46.149 3.06-3.296 5.18-4.238 8.712-0.942 8.712 8.241 19.778 10.596 30.844 10.831 22.84 0.236 43.56-5.415 58.394-24.487 6.592-10.596 7.77-19.307 4.944-28.961z m-138.92-224.155c-11.066-1.177-19.777-1.883-28.254-3.296-2.119-0.471-4.003-2.12-4.709-4.003-1.413-10.36-2.12-20.72-3.296-32.964 18.13 9.183 27.313 23.075 36.26 40.263z m-12.243 31.316c-1.413-9.183-7.299-12.95-22.604-14.363-2.354-10.36-1.412-11.302 8.241-10.595 9.183 0.47 16.482 3.531 19.072 12.479 5.887 19.778 3.768 38.615-8.476 55.803-2.826 3.06-5.651 5.886-8.947 8.241l-5.887-32.258c13.892-5.65 19.778-11.772 18.601-19.307z m3.768 72.992c14.127 7.063 23.545 21.897 21.19 36.26-2.59 15.304-8.711 29.432-23.78 36.966-3.768 2.12-8.241 3.061-12.48 2.59-4.944-1.177-11.302-3.767-13.42-7.77-1.649-3.296 1.177-9.889 3.767-13.892 4.709-6.828 10.83-12.479 16.482-18.6l-1.884-2.355c-22.368 19.307-45.208 37.437-79.113 32.257 7.299-8.24 13.891-14.833 19.778-21.897 10.36-12.48 19.543-25.665 30.374-37.438 10.595-11.066 25.9-12.714 39.086-6.121z m5.18 153.517c-8.477 16.247-23.075 21.191-40.028 21.898-15.776 0.47-24.017-10.125-29.903-22.133s-9.418-25.194-13.656-37.909c-2.59-8.005-4.474-16.246-6.593-24.487-2.59-10.125 0-14.599 10.83-14.834 9.654-0.236 19.308 0.235 28.726 1.884 13.892 2.354 20.485 10.595 21.191 24.723 0.236 3.531 0.471 7.063 0.942 10.83h2.355l2.354-11.301c0.942-4.474 1.178-9.419 3.061-13.657 3.297-7.534 8.241-8.712 13.421-2.825 5.651 6.122 10.125 13.42 12.95 21.19 4.945 16.012 1.884 32.023-5.65 46.621zM873.873 410.165c2.355-3.296 5.887-5.415 9.89-6.122 20.013-1.883 40.263-3.296 60.512-3.532 4.474 0 10.595 4.239 13.185 8.241 12.715 18.837 2.59 67.34-17.188 80.997-10.125-13.656-21.426-25.429-37.202-31.55-5.416-2.12-11.066-3.768-16.482-6.123-12.008-4.944-20.014-31.08-12.715-41.91z m-15.54-11.537l-2.119-1.884c6.357-10.83 11.538-22.604 19.072-32.257 8.006-9.654 17.188-18.366 27.078-26.372 10.124-8.476 16.482-7.534 24.487 2.59 10.596 13.657 20.72 27.549 30.845 41.44 1.648 2.355 2.119 5.652 4.003 10.36a287.964 287.964 0 0 0-103.366 6.123z m-540.137 384.03c-9.889 7.298-20.014 14.362-30.138 21.426l-1.177-1.413 14.598-42.382c9.183 1.413 17.895 10.36 18.13 18.6 0 1.178-0.47 2.59-1.413 3.768zM440.87 888.141c-3.767 7.77-9.183 14.598-13.892 21.662l-2.825-0.942 3.531-43.795c16.482 4.003 19.779 9.654 13.186 23.075z m138.92 46.855c-2.59 9.89-5.416 19.543-8.006 29.433-0.707 2.354-1.413 4.709-2.355 6.828l-2.59-0.236c-0.47-4.473-1.177-8.712-1.413-13.185-0.47-8.712-1.177-17.424-1.177-26.136 0-2.59 1.648-7.3 2.355-7.3 4.709 0.236 9.653 1.414 14.127 2.826 0.471 0.236-0.235 5.18-0.942 7.77z m136.564 6.829c-1.413 13.185-4.238 26.135-6.357 39.085l-3.768-0.235c-4.944-13.892-9.889-27.784-14.598-41.676-0.47-1.177 0.236-3.767 0.942-3.767 5.886-1.177 12.008-2.826 17.66-2.12 2.354 0.236 6.356 5.887 6.121 8.713z m129.737-0.707l-26.136-28.254c0.47-1.178 1.177-2.355 1.884-3.297 12.95-11.066 14.127-10.595 19.071 4.945 2.59 8.24 5.18 16.482 7.77 24.487l-2.59 2.12z m138.683-113.96l-1.412 2.119c-8.477-3.768-16.953-7.064-25.194-11.302-1.648-1.413-2.355-3.532-2.12-5.416 2.826-4.944 5.887-9.654 9.183-14.363l19.543 28.961z m105.72-226.98c-3.296 25.9-11.773 50.152-29.196 69.46-20.014 22.367-42.382 42.617-63.809 63.808-1.413 0.942-2.825 1.413-4.238 1.883l-10.36-27.783-2.826 0.47c-2.119 8.712 0.236 17.424 3.532 25.665s7.535 16.718 10.596 25.9c-15.776-4.238-28.255-16.482-47.798-17.188 3.296 3.532 4.945 5.18 6.357 6.828a153.277 153.277 0 0 1 12.009 12.715c4.238 5.886 4.002 10.831-2.12 16.717-7.063 7.064-11.066 16.953-17.659 24.723-8.24 9.419-17.188 18.366-26.37 26.842-4.71 4.474-8.242 3.532-10.596-3.531-6.593-19.543-13.657-38.615-20.72-57.687-1.413-3.061-2.826-6.122-4.474-8.948-3.768 9.89 6.828 43.324 18.836 71.344 9.654 22.133 22.369 43.088 32.729 64.986-15.07-17.189-28.49-36.26-45.443-51.33-16.482-14.598-31.787-32.493-55.333-36.496l-1.412 2.12 23.31 17.894c9.183 6.593 14.598 17.188 15.304 28.49 0.471 6.593-1.648 11.773-7.77 14.363-23.31 10.125-46.62 20.014-70.166 29.432-7.063 2.826-11.537 0-12.008-7.77-0.706-8.712-0.47-17.659-0.706-26.37-0.471-10.126-0.707-20.486-1.648-30.61-0.236-3.297-3.061-6.122-4.71-9.418l-2.59 0.47c-0.235 2.355-0.941 4.71-0.941 7.064-2.355 39.086 4.002 76.759 9.889 114.667 0.942 6.122 1.177 12.244 1.648 18.601l-2.59 0.236c-2.59-10.125-4.71-20.014-7.77-29.903-10.125-32.493-22.604-64.044-43.324-91.593-3.767-4.944-9.418-8.476-14.128-12.479l-2.354 2.355c0.47 2.119 1.413 4.003 2.119 5.886 6.593 11.773 12.95 23.546 20.485 34.848 5.65 8.947 8.476 19.543 7.534 30.138 0 2.355-3.06 6.122-4.944 6.357-25.43 1.884-50.859 3.297-76.288 4.474-5.416 0.236-4.71-3.767-4.003-7.534 3.061-16.482 6.122-32.729 9.183-49.21 0-0.472 0.235-1.178 0.47-1.649 0.472-4.71 2.826-11.066-4.002-12.008-2.119-0.236-6.828 6.592-7.535 10.595-4.944 28.255-9.182 56.51-13.185 81.704-4.474-16.247-8.712-35.79-15.305-54.862s-15.304-36.731-23.074-54.861l-3.768 1.413c0.471 4.002 1.177 8.005 2.59 12.008 8.477 19.307 9.654 39.557 8.712 60.277-0.235 4.709-1.177 7.534-6.593 5.886-26.135-7.534-52.036-15.304-78.171-22.84-6.828-2.118-6.593-5.415-3.532-11.066 8.476-15.775 16.011-31.786 24.017-47.797 0.706-1.413 0.47-3.061-0.236-4.474-25.9 26.842-38.85 60.983-50.859 95.36l-2.825-0.47c1.413-21.192 4.71-42.383 4.238-63.339s-4.944-41.676-7.77-62.631h-4.238c-0.471 3.532-0.942 7.299-1.177 10.83 0 15.07 0.235 30.375-0.236 45.444-0.235 3.767-2.59 7.77-4.709 11.066-3.532 5.887-8.712 7.3-15.07 3.532-13.891-8.712-27.783-17.188-41.675-25.9-3.767-2.355-7.3-4.945-10.83-7.3-10.832-6.592-12.951-13.656-5.181-23.78 5.416-7.064 12.48-13.186 18.366-20.014 4.473-5.18 8.005-10.831 10.36-17.188-34.377 15.54-50.623 49.681-77.936 72.756 8.712-40.734 35.318-76.995 29.903-120.79l-3.061-0.941c-1.649 4.473-3.532 9.183-5.18 13.656-5.416 15.776-10.36 31.551-15.776 47.327a87.502 87.502 0 0 1-4.945 9.183c-17.188-10.596-29.432-25.194-41.675-39.792-5.416-6.593-9.654-13.892-15.07-20.72s-4.238-12.715 0.707-19.073c11.773-14.833 26.842-26.606 43.795-34.376 1.412-0.707 2.59-1.648 3.296-3.061-16.717-3.061-29.196 8.24-44.03 12.95 8.24-18.601 28.02-31.787 24.487-55.568-22.84 16.953-29.903 45.208-47.091 67.576l-28.726-63.573 37.673 13.657c-3.767-16.482-17.659-16.718-28.49-22.133 7.064-15.305 22.368-27.078 18.13-46.385-8.24 14.833-12.008 32.493-29.667 41.676l-4.945-23.31-3.296 0.47c0 6.122-0.471 12.244 0 18.366 0.942 9.889 0.942 18.365-10.596 23.075-3.532 1.412-6.122 8.476-7.064 13.185-4.473 24.488-18.836 41.676-39.556 54.155-2.59 1.413-5.18 2.59-8.006 3.767-9.183-20.484 0-34.376 16.011-45.678l-2.354-1.884-8.948 6.828-10.36 8.241c-2.354-9.889-6.828-18.365-5.65-25.9s8.005-13.892 12.479-20.955l-17.189 8.24c-9.418-15.304 6.828-18.13 13.421-27.077-1.883 0.236-4.002 0.706-5.886 1.177-14.128 7.064-18.837 5.651-26.842-8.24-1.413-2.59-2.826-5.18-4.003-7.77-2.59-6.358-5.18-12.95-8.005-20.014l14.598-3.768c-9.183-3.296-19.779-0.942-22.604-13.42h25.9l0.236-3.062c-7.535-0.706-15.305-0.942-22.84-2.354-4.473-0.942-9.653-2.826-12.243-6.122-8.477-10.36-16.011-21.427-25.194-34.141h42.853l0.47-3.297c-5.415-1.412-10.595-3.532-16.01-4.002-6.828 0-13.421 0.235-20.25 0.941-13.185 0.707-21.426-4.002-25.429-15.069l33.906-6.828v-2.59a56.755 56.755 0 0 0-8.947 0c-6.593 0.942-13.186 2.119-20.014 3.06-2.826 0.236-5.887 0.236-8.712-0.235-6.828-1.177-15.54-10.36-15.305-16.246 0.471-8.477 7.77-9.183 13.892-10.831 31.787-8.241 57.216 4.709 80.29 24.723 8.713 7.534 16.247 16.01 24.253 24.016 4.238 4.474 8.712 8.477 13.656 12.48 13.421 10.595 24.959 11.066 39.557 1.883 3.06-1.883 6.122-4.003 10.125-6.593 0.706 5.887 0.941 10.596 1.883 15.07 0.942 3.767 2.355 7.77 3.768 11.537l3.06-0.47c0.236-2.356 0.471-4.71 0.471-7.065 0.707-17.423 1.413-35.083 2.355-52.506 0.235-3.297 0.942-6.358 2.12-9.419 4.237-11.066 12.007-14.127 22.132-7.534 7.77 4.944 14.598 11.302 21.897 16.953l2.355-1.649c-4.474-7.299-7.77-15.069-13.186-21.426-20.72-24.252-44.972-44.501-73.933-58.158a14.878 14.878 0 0 1-6.593-6.593c2.12 0.236 4.474 0.471 6.593 1.178 22.133 6.592 44.03 13.892 66.399 20.013 13.656 3.768 28.255 2.59 40.97-3.767-3.533-1.177-7.3-2.119-10.832-2.825-11.302-1.649-22.604-3.297-33.905-4.474-5.18-0.47-6.593-2.59-4.945-7.535 2.355-7.534 4.474-15.304 7.064-22.603 6.122-17.895 0.941-32.729-11.773-45.679a694.284 694.284 0 0 1-17.895-19.307c-1.884-2.355-3.532-4.945-4.944-7.535 11.772 4.003 21.662 8.005 32.022 11.066 9.418 3.061 19.778 3.061 29.196-0.47 26.371-10.125 41.676-6.122 61.219 15.069 0.706 0.706 1.648 1.412 4.944 1.648-0.706-4.945-0.706-10.36-2.354-14.834-2.12-5.415-5.416-10.36-9.183-14.834-15.54-17.188-31.316-33.905-47.327-50.623-7.299-7.77-15.069-14.833-22.368-22.368-1.648-2.12-3.296-4.238-4.474-6.593l2.355-2.825c8.476 5.18 17.188 10.124 25.43 15.304 19.307 12.48 38.379 25.665 58.157 37.673a87 87 0 0 0 23.781 8.477c4.71 1.177 10.125-0.471 15.07-0.707l0.706-3.531-47.798-18.837c22.84-17.895 11.773-35.79 2.12-53.92l2.59-1.177c2.354 1.178 4.708 2.355 7.063 3.768 19.543 13.185 30.138 12.243 47.327-4.003 7.063-6.593 14.362-12.48 23.78-20.72l11.538 55.332 1.884 1.177c1.412-3.296 4.709-7.064 4.238-10.124-2.355-17.189-4.238-34.848-8.947-51.565-5.416-19.308-13.657-37.909-20.72-56.745-0.942-2.59-1.178-5.416-0.472-8.241 20.014 38.85 39.322 77.7 76.76 103.836l-33.671-49.21a17.78 17.78 0 0 1 3.296-2.59c18.837-9.654 25.194-22.84 19.779-43.325-2.12-8.24-5.416-16.01-8.006-24.252-0.942-2.825-1.413-5.886-2.119-8.947l2.12-0.942c1.176 1.649 2.354 3.297 3.06 4.945 12.008 28.961 33.2 42.147 64.28 40.027 8.712-0.47 17.188-1.412 26.842-2.119l-9.183 64.28c10.595-17.188 19.778-34.848 19.543-55.332-0.236-19.779-1.648-39.557-2.59-61.69 14.834 38.38 22.133 77.465 44.03 110.194l2.826-0.942-16.011-63.338c44.265-0.706 59.335-28.49 60.747-68.282l3.061 1.413c0.471 3.296 1.413 6.357 1.413 9.653 0.47 6.358 0 12.95 0.706 19.308 2.12 22.133 12.009 31.55 34.142 34.14 6.121 0.472 12.008 1.884 17.894 3.768 6.593 2.355 10.125 7.535 6.829 14.598-6.358 14.128-12.95 28.02-19.779 41.912-1.177 2.119-2.59 4.238-4.003 6.122 10.125-1.413 25.665-19.072 32.258-38.144 5.415-15.776 9.418-32.022 15.305-48.033V110.9c0 24.723-0.236 49.21 0 73.933 0 5.18 0.941 10.596 2.825 15.305 1.413 3.532 5.18 5.886 8.006 8.712l2.354-1.413v-68.282c3.297 0.706 6.593 1.648 9.654 2.825 9.89 4.474 19.307 9.654 29.196 14.128 11.067 4.944 21.192 3.06 29.433-6.122 8.005-8.948 15.775-17.66 25.664-28.726l-5.65 46.62-9.183-0.941-0.942 1.412c2.825 2.12 5.886 4.003 8.712 6.122 8.711 6.593 17.188 13.186 26.135 19.308 5.416 3.767 6.828 7.534 1.884 12.714-4.238 4.71-8.947 9.183-13.657 13.421-8.711 6.829-18.13 12.95-27.313 19.308-2.119 1.412-3.767 3.532-4.944 5.65 28.02-4.473 44.737-26.135 65.221-42.852-5.886 30.609-21.897 58.864-14.833 90.886l2.354 0.47 17.188-69.93c3.061 1.884 6.122 4.003 8.712 6.357 4.474 4.945 8.477 10.36 12.95 15.54 10.36 12.48 20.72 15.54 36.025 9.419 8.948-3.532 17.424-8.241 26.136-12.244 2.355-1.413 4.945-2.119 7.535-2.119l-32.023 43.56-10.36-3.768c3.061 7.3 5.416 12.715 7.77 18.13 19.308 42.147 29.197 85.706 23.782 132.327-2.12 20.014 0.235 40.027 7.063 58.864 1.884 5.65 0.471 8.24-4.473 12.244-8.241 7.063-15.54 14.598-22.369 23.074-7.77 9.183-14.363 19.072-21.897 28.49-1.884 2.355-4.945 3.297-9.654 6.358 1.413-4.474 2.59-9.183 3.296-13.892 0.707-8.241 2.12-16.953 0.942-24.958-2.119-12.48 4.238-21.662 10.36-30.61 10.36-14.833 15.54-30.61 14.128-48.74-0.707-8.947-2.355-17.894-3.297-27.077-0.235-1.412-0.235-2.825-0.235-4.709h13.185c-1.177-2.825-2.59-5.65-4.238-8.24-14.598-22.37-28.96-44.738-44.266-66.635-5.18-7.535-8.005-13.892-2.354-22.133 1.177-2.354 1.413-4.944 0.235-7.299-6.828 5.415-13.892 10.36-20.249 16.011-17.188 14.834-35.083 29.197-51.094 45.443-12.95 12.95-18.13 30.139-19.072 48.269 1.177 0.706 1.884 1.177 2.12 1.177 12.243-2.12 12.243-2.12 13.656 10.831 0.706 5.886 3.296 13.421 0.706 17.424-2.12 3.296-10.596 2.825-16.246 4.002-1.413 0.707-2.59 1.413-3.768 2.355 3.297 1.177 5.416 2.12 7.535 2.59 20.014 4.71 39.792 8.947 57.922 19.543 25.43 14.834 37.438 37.438 33.67 66.87-4.238 33.905-18.836 63.102-40.498 89.002-6.593 7.77-12.95 16.011-19.072 24.017-1.884 2.825-3.532 5.886-5.18 8.947 14.127-3.532 21.19-12.715 28.49-21.191 6.357-7.535 10.831-16.717 17.424-24.252 3.532-4.238 9.889-9.183 14.363-8.712 3.767 0.235 8.24 7.3 10.36 12.244 4.238 9.889 6.828 20.484 10.124 30.845 3.768 12.243 2.355 25.429-4.002 36.495-5.887 10.596-11.538 21.427-9.89 35.319a60.282 60.282 0 0 0 4.71-6.122c1.177-2.59 2.354-5.416 3.296-8.006 8.006-18.836 14.834-21.897 34.141-14.598 16.718 6.357 32.493 1.884 46.856-7.3 26.371-16.952 35.79-43.558 25.665-73.226-5.18-15.305-5.416-28.726 3.06-43.56 5.416-9.418 6.829-21.661 7.3-32.728 0.942-18.365-9.418-30.374-26.607-36.025-8.005-2.59-9.653-6.122-5.18-13.185 0.471-0.707 0.236-1.884 0.942-2.355 4.474-4.238 8.712-10.83 13.892-11.537 4.238-0.471 11.302 5.18 13.656 9.889 17.895 36.26 33.2 73.933 27.784 116.315z m47.327 48.974l4.474 10.125-1.884 1.884-12.48-11.067 3.768 10.125c-11.773 4.473-16.717 1.883-30.61-15.776l0.472 9.418c-6.828-1.412-9.183-4.473-7.535-11.301 3.767-14.363 7.064-28.962 10.36-43.324 1.413-6.593 4.945-8.477 9.654-4.239 6.828 5.887 12.95 12.244 18.366 19.543 9.182 12.48 14.598 27.549 30.373 35.554-9.889 8.241-16.952 4.71-24.958-0.942z" fill="#1AFA29" p-id="3506"></path><path d="M619.345 609.832a320.485 320.485 0 0 0-33.906 27.549c-10.36 9.889-18.836 21.662-28.255 32.493-2.354 2.354-4.944 4.709-7.77 6.592l-1.177-1.412 9.183-23.31c-8.947 12.479-13.421 28.019-29.903 36.495l4.71-16.953c-8.242 8.948-13.422 21.191-29.904 18.601l13.657-30.374-2.59-1.412c-3.297 5.415-7.064 10.83-10.125 16.482-7.3 13.656-7.3 13.656-12.715 12.479l12.715-23.546c-10.596 7.064-13.421 23.075-31.08 21.427l9.889-18.837-1.884-1.177c-3.296 4.71-6.593 9.418-10.124 14.127s-8.477 6.122-12.95 2.12c-4.945-4.474-0.707-8.477 2.354-11.067 16.247-13.421 25.665-31.787 36.496-49.21 19.543-31.787 35.554-37.909 72.05-30.139 9.653 1.884 19.778 2.59 29.667 2.355 11.773-0.236 19.543-6.593 20.956-16.011-1.413 0-3.061-0.707-4.003-0.236-17.188 7.77-34.612 5.651-52.507 3.297-14.127-2.12-28.726-2.12-42.853 0.235-19.072 3.296-29.903 18.366-35.79 35.319-7.063 20.249-16.952 37.673-35.789 48.974-0.942 0.707-1.883 1.413-2.59 2.355-10.36 8.712-9.889 12.48 2.355 18.601 17.659 8.712 36.025 15.54 56.038 16.953 7.77 0.47 12.48 4.474 13.657 12.48 0.706 5.18 1.413 10.36 1.648 15.775 0.236 5.65 0 11.302 0 16.953l3.061 0.941c11.302-9.653 21.191-20.72 27.784-34.376l-2.12-2.12-21.897 21.898-4.238-29.903c20.014-1.413 32.258-14.127 43.089-28.255 4.944-6.592 10.124-12.95 14.598-19.778 11.773-17.895 28.49-31.551 48.269-39.557 2.825-1.177 5.415-2.59 8.476-4.238-6.593-5.886-10.596-7.064-16.482-2.59z m-291.024-232.63c21.897 16.01 42.617 32.963 52.978 59.334 0.941 2.59 3.767 4.238 5.65 6.593l2.355-1.884c-6.122-20.72-13.185-40.97-33.906-53.684 4.474-0.235 8.006 1.178 11.538 1.413 14.833 0.942 29.667 1.884 44.266 2.355 1.648 0 3.296-2.355 4.944-3.768-1.648-0.942-3.296-2.825-4.709-2.59-22.133 3.061-40.97-7.534-60.748-13.892-11.537-3.767-22.84-7.77-34.376-11.537l-2.355 2.59c4.945 5.18 8.947 11.066 14.363 15.07z m360.72 472.09c-1.885-2.59-3.297-5.18-4.24-8.006-5.65-14.128-11.066-28.255-17.187-42.147-2.826-6.357-8.477-11.066-15.07-12.95l39.557 102.894c2.355-6.828 5.416-12.008 5.886-17.188 2.59-20.485 4.71-41.205 6.593-61.925 0.707-7.064 0.707-13.892 1.178-20.956l-3.532-0.47c-10.36 18.6-6.829 40.734-13.186 60.747zM531.52 277.131c12.243-24.016 1.412-48.74 3.296-73.227 9.654 21.191 15.305 44.737 40.028 54.626-0.707-3.767-2.12-7.299-4.238-10.595-5.18-8.241-10.831-16.011-15.54-24.252-9.183-15.54-17.66-31.552-26.843-47.092-2.119-3.767-5.886-6.357-8.947-9.418l-2.59 1.648c4.474 35.79 19.072 70.873 14.834 108.31z m263.24 479.625c2.355 17.66 5.416 35.083 8.241 52.742 0.47 3.297 1.413 6.593 2.12 9.183-15.07-16.717-29.904-33.2-44.738-49.446-1.648-1.884-4.944-2.119-7.299-3.296 0.236 2.825 0.707 5.65 1.648 8.24 1.178 2.12 2.59 3.768 4.474 5.416 9.183 11.302 19.308 22.133 27.549 33.906s15.069 24.958 22.603 37.438a176.624 176.624 0 0 0 8.241 10.36l1.178-1.413-20.25-117.728c-1.883 6.592-4.238 10.83-3.767 14.598zM399.429 590.525c-25.665-9.654-48.269 3.296-73.463 12.479 1.884-4.474 2.59-6.593 3.768-8.241 6.121-7.3 13.185-14.127 18.836-21.898 8.241-11.301 15.54-23.074 22.84-35.083 0.941-1.412-0.472-4.238-0.707-6.121-1.884 1.177-4.474 2.119-5.65 3.767-3.533 5.415-5.416 12.008-9.655 16.717-12.95 14.599-26.37 28.726-39.792 43.089-4.944 5.18-9.654 10.595-14.363 16.01l2.12 2.12 96.301-20.25-0.235-2.59z m264.653-403.337l2.59 0.47c0.235 3.062 0.942 6.123 1.412 9.184 4.003 14.833 8.006 29.667 12.48 44.265 1.177 3.297 4.944 5.651 7.77 8.477l2.119-1.648-26.136-96.538-1.413 0.236-21.426 99.127c19.778-16.482 17.895-41.44 22.604-63.573z m143.393 35.318c0.47 26.136-11.302 51.8 0.235 77.465 8.947-35.318 3.532-72.756 17.66-107.132 0.941-2.355-0.236-5.416-0.236-8.006l-2.355-0.706c-17.894 27.784-33.199 57.451-58.393 79.82 20.014-8.006 33.435-22.369 43.089-41.44z m108.31 522.714c-2.826-1.884-5.651-3.532-8.241-5.416-13.186-8.712-26.136-17.66-42.382-20.014-2.12 0-4.003 0.471-5.887 1.413 1.177 1.648 2.355 4.474 3.767 4.71 20.72 3.531 34.377 17.658 48.74 30.844 7.299 6.828 14.834 13.421 22.368 20.014l2.59-1.884c-3.532-31.08-23.074-55.803-34.847-83.587-6.593 20.956 8.005 35.554 13.892 53.92zM426.742 285.373c7.534 12.48 16.01 24.488 22.603 37.438 3.061 5.886 2.59 13.656 3.768 20.72 9.889-11.067 1.648-20.485-2.12-29.903-4.238-10.125-10.124-19.543-15.069-29.432 9.419 4.003 16.953 9.418 24.959 13.892 8.005 4.474 17.424 4.944 27.313 1.177-33.67-8.005-54.39-34.612-82.645-55.568 1.177 5.18 1.177 8.006 2.354 10.125 6.122 10.596 12.48 20.956 18.837 31.551z m149.044 546.495c-3.297-10.831-5.18-21.662-8.241-32.258s-6.829-21.897-17.895-27.313l22.84 88.532c7.063-7.77 30.373-72.756 28.49-78.172-14.834 13.186-17.66 32.022-25.194 49.21zM412.614 686.59c-8.005 2.355-15.775 5.65-23.78 8.476 6.121-10.83 13.891-19.543 20.013-29.196s12.008-20.25 5.886-32.964c-11.066 33.2-35.083 56.98-56.038 83.822 26.135-8.712 48.268-27.313 79.113-28.254-9.89-9.419-17.66-4.003-25.194-1.884z m49.21 91.828c5.652-22.368 10.36-42.853 0.236-65.457l-12.008 87.119c14.598-4.474 18.365-19.543 27.784-29.197 9.889-10.124 19.778-20.013 30.138-30.374-9.89 1.178-18.836 5.887-25.194 13.186-7.063 7.77-13.185 15.54-20.955 24.723z m-147.395-221.8l0.942-3.767c-8.006-15.776-24.723-13.186-39.321-16.011 9.653-7.535 20.249-13.186 26.606-26.607-2.354 0.471-4.709 1.413-6.828 2.12-14.834 7.534-29.668 15.068-44.266 23.074-2.355 1.413-4.003 4.238-6.122 6.357 2.826 1.648 5.651 3.297 8.712 4.238 2.12 0.471 4.474-0.706 6.828-0.941 15.07-2.355 28.961-0.707 41.44 8.947 3.062 2.355 8.006 1.884 12.009 2.59z m164.349-178.005c-19.072-7.535-36.732-18.13-52.036-31.551-2.355-2.12-6.829-2.12-10.36-3.061l-2.12 3.06c22.369 18.13 30.374 44.737 42.383 69.225 2.59-16.717-7.77-29.432-13.421-45.679 13.185 6.829 23.31 15.305 38.85 12.244-1.884-2.354-2.355-3.767-3.296-4.238z m343.06 301.384l7.299 45.679c-2.826-0.942-5.651-2.826-7.77-5.18-9.89-8.477-19.779-17.189-30.139-25.194-2.119-1.648-6.357-0.471-9.654-0.707l-0.706 3.297c27.078 9.654 37.438 38.144 61.454 54.861l-16.717-73.462-3.767 0.706z m-208.38-402.866c14.599 35.554 14.834 36.025 25.194 36.025L614.4 255.941c-10.124 11.067-18.13 49.21-11.772 60.042l10.83-38.85z m174.003 60.513c14.834 4.473 24.723-3.768 36.025-8.006-0.707 12.008-10.125 22.133-5.18 33.435l3.296 0.235 18.601-60.277c-9.889 7.77-16.953 14.599-25.194 20.014s-17.188 9.183-27.548 14.599z m-361.19 119.14l-0.942-2.354-60.041 16.953 53.448 25.665c-4.944-14.128-18.6-16.482-30.845-24.959 16.011-2.119 30.139-2.825 38.38-15.305zM323.14 476.8l27.077-24.487-2.119-2.355c-17.894 4.003-30.374 16.718-46.856 28.49l44.973 16.247c-2.355-8.947-2.355-8.947-23.075-17.895z m200.373-121.26l-2.59-44.266c6.593 5.416 11.302 9.654 16.482 13.186s10.36 7.77 18.366 2.825c-21.191-2.825-25.43-26.37-43.089-33.434 3.768 20.955 1.648 42.146 6.828 62.16l4.003-0.47z m196.37-80.761c0.943 6.592 2.355 12.95 4.004 19.307 1.883 4.945 4.238 9.654 6.828 14.363l1.884-0.942-8.712-61.69c-7.77 18.837-13.892 38.38-30.845 51.095 16.717 3.296 19.543-11.067 26.842-22.133z m-8.476 471.619L681.27 724.97l-1.177 1.884 36.025 40.028 3.06-1.413 3.532-49.917c-13.42 7.77-9.182 20.014-11.302 30.845z m-101.246 3.06c-3.532-10.83-6.593-21.426-10.595-31.786-0.942-2.119-5.651-2.825-8.477-4.003 0 2.59-0.706 5.416 0 7.77 3.532 10.125 7.77 20.014 11.538 29.903 2.119 5.18 4.238 10.36 6.357 15.305 8.947-11.773 16.01-22.84 16.953-36.496l-4.003-1.883-11.773 21.19z m-164.348-132.09v-4.238l-30.61-4.003 17.424-32.022-3.06-1.648c-12.716 12.479-21.898 27.077-30.846 44.972l47.092-3.061z m299.736 49.21c-7.064-5.415-10.831-13.892-22.369-12.479l28.961 34.141 7.3-43.324c-11.773 3.297-10.831 13.186-13.892 21.662z m77.936-22.84l-2.59-36.26h-3.768c-0.47 3.297-0.941 6.358-1.177 9.654s-0.47 6.593-0.706 11.302l-14.128-8.947c1.649 10.36 12.95 21.897 22.369 24.252z m-162.7 27.078l-8.006 19.072-9.89-13.185-1.883 1.177 9.89 30.61c11.772-16.953 15.54-29.668 9.888-37.674z m-73.228-318.572l9.89 10.83 2.825-1.883-12.95-23.545-3.061 0.706-9.183 43.56c11.773-8.477 8.006-20.25 12.48-29.668z m121.967 12.714l19.072-13.656 4.709 22.84 3.06-0.707c0.472-10.831 1.649-21.662-4.944-30.845l-21.897 22.368zM848.68 528.13l18.365 15.54-16.953 9.654 1.413 3.296 24.488-10.831c-8.712-9.418-15.54-16.953-27.313-17.66z m-368.49-94.89c0.236-0.706-2.354-3.06-3.532-2.825-7.299 1.178-14.362 3.061-22.839 4.945l15.776 19.778 1.883-1.177-7.063-13.656c4.238-0.707 8.24-1.649 12.479-2.59 1.648-1.178 2.825-2.59 3.296-4.474z" fill="#1AFA29" p-id="3507"></path><path d="M604.747 672.464l16.482-22.369-2.59-2.354-11.773 10.36-3.767-7.3-4.003 1.884 1.883 18.601 3.768 1.178z m-51.8-245.11l-21.663-3.297-2.59 3.296 12.009 21.191 3.06-1.883-6.121-14.128 14.833-0.706 0.471-4.474z m-83.588 118.905l-16.482-7.3 4.945-11.537-15.776 13.421 1.413 2.59c8.476 2.355 15.776 8.477 25.9 2.826z m319.28-121.967l3.766-22.132-3.06-1.178-16.718 12.715 1.177 1.648 11.773-5.415-1.177 13.42 4.238 0.942z m-20.721 174.003c0.942-7.535 1.413-15.305 1.884-22.84l-2.826-0.235-2.354 17.424-10.596-5.416-1.884 2.59c3.532 3.297 7.064 6.122 10.831 9.183 1.413 0.471 3.297 0.236 4.945-0.706z m-243.462-91.593l-9.183 17.424 13.892 6.593 2.826-2.12c-9.419-5.886-7.535-13.185-3.768-21.19l-3.767-0.707zM654.9 380.733l-5.416-13.656-2.59-0.942-11.537 19.778c8.241 0.236 8.712-14.127 19.543-5.18z m-66.163 141.745c-3.297 4.003-7.064 7.77-10.125 12.008-1.413 2.59-2.59 5.18-3.532 8.006l11.302 4.473-5.415-8.24 10.595-14.364-2.825-1.883z m32.022-101.246c-4.003 9.653-2.59 15.069 4.238 18.6l3.532-14.127-7.77-4.473z m90.415 137.27l3.06 1.413 10.596-12.95-1.648-1.177-13.656 2.825 1.648 9.89z m-64.28-10.36l3.768-13.185-3.532-1.177c-4.945 2.59-8.006 6.357-6.122 12.243 0.47 1.178 4.003 1.413 5.886 2.12z m71.344-121.966a113.255 113.255 0 0 0-9.89 11.302l1.413 0.706 15.07-8.005c-1.413-0.706-5.651-4.71-6.593-4.003zM680.564 613.13c-3.061-0.942-7.3-2.12-11.302-3.297 5.415 5.887 10.124 9.418 15.069 14.363 0.942-2.12 0.942-3.06 1.648-4.474 0.707-1.883 4.71-9.653 5.18-10.36-3.06-0.942-8.005 4.71-10.595 3.768z m257.589-158.7c9.183 0.235 16.717-6.828 16.953-15.776s-6.828-16.717-15.776-16.953c-9.183-0.235-16.717 6.829-16.953 15.776v0.235c0.236 8.712 7.064 15.776 15.776 16.718zM580.73 470.44c-0.47-1.176-2.354-0.94-2.354-0.94s-8.241 3.531-5.887 7.534c2.355 4.002 2.355 4.473 4.945 2.119 2.354-2.12 3.532-5.416 3.296-8.712z m49.681 18.367c3.061-1.178 4.945-4.239 4.71-7.535-0.471-1.884-1.884-2.826-4.474-2.355s-3.532 8.948-3.532 8.948-0.47 2.59 3.296 0.942z m62.867 0.47c2.59-0.706 4.003-6.828 3.768-8.005-0.236-1.177-0.707-3.532-4.003-2.12-3.532 1.178-4.945 5.887-4.945 5.887-0.706 4.238 2.355 5.18 5.18 4.238z m42.853 11.302c-0.235 3.768 2.355 4.474 8.477 0.707 6.122-3.532 7.299-6.829 5.415-8.241-1.883-1.178-13.42 4.473-13.42 4.473-1.649 0.942-0.472 2.59-0.472 3.061z m76.524-2.825c-0.471-4.71-4.71 0.47-4.945 1.884s-0.706 12.95 2.826 12.243c0 0 4.002-0.706 2.119-14.127z m52.271 102.188c1.884 5.415 4.003 4.71 5.651 2.355s3.296-6.358 0.706-8.712c0 0-8.476 0.941-6.357 6.357z m-364.957-26.371c2.354-1.413 4.238-3.767 4.709-6.593 0.235-1.648-0.942-3.06-2.59-3.296-0.471 0-1.178 0-1.649 0.235 0 0-5.415 1.884-4.944 4.71s0.706 6.592 4.474 4.944z m-255.942 7.77c-3.296-1.884-6.357 5.18-6.357 5.18-1.413 5.18 3.532 2.825 6.357 0s3.061-3.296 0-5.18z" fill="#1AFA29" p-id="3508"></path></svg>