<?xml version="1.0" standalone="no"?><!DOCTYPE svg PUBLIC "-//W3C//DTD SVG 1.1//EN" "http://www.w3.org/Graphics/SVG/1.1/DTD/svg11.dtd"><svg t="1668417780719" class="icon" viewBox="0 0 1024 1024" version="1.1" xmlns="http://www.w3.org/2000/svg" p-id="2988" xmlns:xlink="http://www.w3.org/1999/xlink" width="128" height="128"><path d="M352 899.2s-38.4 16-51.2 25.6c-12.8 9.6-25.6 22.4-25.6 22.4S256 963.2 304 960c35.2-3.2 32 16 41.6 22.4s22.4 12.8 48-6.4c12.8-9.6 92.8 9.6 28.8-51.2l-32-25.6H352z" fill="#E39941" p-id="2989"></path><path d="M355.2 896s-35.2 16-48 22.4c-12.8 9.6-25.6 22.4-25.6 22.4s-16 16 28.8 12.8c32-3.2 28.8 12.8 38.4 19.2s19.2 12.8 44.8-6.4c12.8-9.6 86.4 6.4 28.8-48l-32-22.4h-35.2z" fill="#FFCD4C" p-id="2990"></path><path d="M544 902.4s-25.6 19.2-25.6 38.4 3.2 32 38.4 25.6c0 0 16 3.2 22.4 19.2 9.6 19.2 41.6 12.8 44.8-25.6 3.2-12.8 80 19.2 38.4-35.2l-44.8-48-73.6 25.6z" fill="#E39941" p-id="2991"></path><path d="M547.2 899.2s-25.6 19.2-25.6 35.2 0 28.8 35.2 22.4c0 0 16 3.2 22.4 16 6.4 19.2 38.4 9.6 44.8-22.4 0-9.6 76.8 19.2 35.2-32l-41.6-44.8-70.4 25.6z" fill="#FFCD4C" p-id="2992"></path><path d="M582.4 268.8l12.8 19.2 16-19.2h-28.8z" fill="#A7A7A8" p-id="2993"></path><path d="M870.4 556.8s19.2 6.4 19.2 19.2-25.6 16-25.6 16l-6.4-16 12.8-6.4v-12.8z" fill="#B6B6B7" p-id="2994"></path><path d="M921.6 499.2l-22.4-12.8c-32-108.8-99.2-112-99.2-112-25.6-60.8-67.2-60.8-67.2-60.8s-96-12.8-124.8-22.4-19.2-70.4-19.2-70.4 6.4-54.4 0-73.6-3.2-38.4-32-73.6-41.6-48-121.6-44.8c-57.6 3.2-83.2 44.8-96 73.6-12.8 25.6-9.6 105.6-6.4 118.4 3.2 12.8 6.4 19.2 6.4 41.6s-9.6 48-9.6 48-6.4 28.8-70.4 25.6-102.4 89.6-102.4 89.6c-48 25.6-54.4 102.4-54.4 102.4l-16 19.2c0 28.8 12.8 32 12.8 32s16 9.6 22.4 9.6 16 9.6 22.4 12.8c3.2 3.2 6.4 6.4 9.6 6.4 16 6.4 57.6 22.4 64 22.4s32 12.8 32 12.8l16 16 19.2 64 19.2 57.6s9.6 19.2 28.8 38.4c-6.4 6.4-25.6 41.6-6.4 73.6 19.2 35.2 48 41.6 80 16 12.8-12.8 19.2-22.4 22.4-32C448 880 464 880 464 880c25.6-6.4 44.8-9.6 60.8-16l-6.4 3.2s9.6 41.6 35.2 51.2 67.2 16 76.8-44.8c6.4-54.4-12.8-80-19.2-86.4 3.2-3.2 6.4-9.6 12.8-12.8 38.4-44.8 38.4-115.2 38.4-115.2l60.8-16s112-48 163.2-76.8c51.2-28.8 35.2-67.2 35.2-67.2z" fill="#1E171A" p-id="2995"></path><path d="M339.2 828.8s32 32 44.8 35.2 25.6 9.6 22.4 6.4c-3.2 0-38.4 19.2-60.8-25.6-3.2 0-6.4-9.6-6.4-16zM540.8 864s22.4-9.6 38.4-22.4c16-16 25.6-28.8 25.6-28.8s-6.4 28.8-16 38.4c-16 6.4-35.2 12.8-48 12.8z" fill="#57585A" p-id="2996"></path><path d="M348.8 195.2a51.2 32 90 1 0 64 0 51.2 32 90 1 0-64 0z" fill="#FFFFFF" p-id="2997"></path><path d="M380.8 163.2c12.8 0 22.4 6.4 28.8 12.8-3.2-19.2-16-32-28.8-32s-25.6 16-28.8 35.2c6.4-9.6 16-16 28.8-16z" fill="#DDDFDF" p-id="2998"></path><path d="M380.8 134.4c9.6 0 19.2 6.4 28.8 19.2-6.4-16-16-25.6-28.8-25.6-9.6 0-19.2 6.4-25.6 19.2 9.6-6.4 16-12.8 25.6-12.8z" fill="#6C6F75" p-id="2999"></path><path d="M435.2 192a54.4 44.8 90 1 0 89.6 0 54.4 44.8 90 1 0-89.6 0z" fill="#FFFFFF" p-id="3000"></path><path d="M476.8 153.6c19.2 0 35.2 9.6 44.8 22.4-3.2-25.6-22.4-41.6-44.8-41.6-19.2 0-35.2 16-41.6 38.4 12.8-9.6 25.6-19.2 41.6-19.2z" fill="#DDDFDF" p-id="3001"></path><path d="M483.2 131.2c16 3.2 32 12.8 41.6 28.8-6.4-22.4-22.4-35.2-41.6-38.4-9.6 0-19.2 0-25.6 12.8 9.6-3.2 12.8-6.4 25.6-3.2z" fill="#6C6F75" p-id="3002"></path><path d="M457.6 201.6a28.8 22.4 90 1 0 44.8 0 28.8 22.4 90 1 0-44.8 0z" fill="#1E171A" p-id="3003"></path><path d="M483.2 182.4s6.4 0 9.6 12.8 6.4-6.4 0-12.8c-9.6-6.4-16 0-9.6 0z" fill="#87888A" p-id="3004"></path><path d="M368 208a28.8 16 90 1 0 32 0 28.8 16 90 1 0-32 0z" fill="#1E171A" p-id="3005"></path><path d="M380.8 188.8s6.4 0 9.6 12.8c3.2 9.6 6.4-3.2 0-12.8-6.4-6.4-12.8 0-9.6 0z" fill="#87888A" p-id="3006"></path><path d="M368 249.6s-6.4 92.8-16 99.2S473.6 368 473.6 368s76.8-25.6 80-25.6 6.4-3.2 6.4-3.2-60.8-51.2-57.6-76.8S368 249.6 368 249.6z" fill="#FFFFFF" p-id="3007"></path><path d="M368 288s22.4 67.2 54.4 64 70.4-44.8 86.4-73.6S371.2 272 368 288z" fill="#D3D5D6" p-id="3008"></path><path d="M352 256c16-16 32-28.8 48-41.6 16-6.4 28.8-6.4 35.2-6.4 25.6 3.2 35.2 28.8 64 25.6 25.6 0 16 35.2 9.6 41.6s-19.2 3.2-19.2 3.2-3.2 16-44.8 35.2-96-44.8-96-44.8-3.2-9.6 3.2-12.8z" fill="#FFCD4C" p-id="3009"></path><path d="M387.2 224s-16 22.4-19.2 32l-6.4 19.2s-22.4-6.4-9.6-19.2c12.8-16 35.2-32 35.2-32z" fill="#F7B949" p-id="3010"></path><path d="M348.8 272s19.2 19.2 38.4 19.2h48s12.8 6.4 54.4-32l6.4-3.2s3.2-3.2 6.4 0c3.2 0 16-16 12.8-3.2 0 16-6.4 25.6-12.8 28.8-3.2 0-6.4 0-9.6 3.2-3.2 0-6.4-3.2-6.4 0-9.6 12.8-19.2 22.4-32 28.8-25.6 12.8-25.6 9.6-28.8 9.6-19.2 0-44.8-12.8-57.6-25.6-6.4-12.8-19.2-25.6-19.2-25.6z" fill="#FAA947" p-id="3011"></path><path d="M348.8 272s19.2 16 41.6 16c16 3.2 38.4 0 41.6 0s12.8 3.2 48-25.6c0 0 6.4-6.4 12.8-9.6 6.4-3.2 3.2 3.2 9.6-3.2 9.6-3.2 12.8 3.2 6.4 6.4s-9.6 0-9.6 0-28.8 28.8-48 35.2c-19.2 6.4-60.8 3.2-60.8 3.2s-25.6-3.2-41.6-22.4z" fill="#EB863F" p-id="3012"></path><path d="M435.2 217.6a6.4 3.2 0 1 0 12.8 0 6.4 3.2 0 1 0-12.8 0z m-38.4 3.2a3.2 3.2 0 1 0 6.4 0 3.2 3.2 0 1 0-6.4 0z" fill="#D5903E" p-id="3013"></path><path d="M416 275.2s12.8-16 16-35.2 22.4-6.4 22.4-6.4 12.8 6.4 3.2 22.4-41.6 19.2-41.6 19.2z" fill="#FFD559" p-id="3014"></path><path d="M368 89.6s19.2-28.8 35.2-32c19.2-6.4 25.6 35.2 22.4 51.2s-9.6-6.4-22.4-6.4c-16 0-28.8 3.2-28.8 3.2s-16 3.2-6.4-16z" fill="#57585A" p-id="3015"></path><path d="M243.2 556.8l3.2 48 9.6 44.8 3.2 9.6 6.4 3.2h3.2v19.2h-6.4s19.2 51.2 35.2 70.4 44.8 60.8 76.8 76.8 64 16 64 16 32 0 73.6-9.6 83.2-38.4 105.6-70.4c12.8-19.2 51.2-96 51.2-96l9.6-28.8s16-48 9.6-89.6-28.8-54.4-28.8-54.4l-416 60.8z" fill="#E0E0E0" p-id="3016"></path><path d="M358.4 569.6s-6.4 67.2 0 115.2S400 819.2 400 819.2v19.2s25.6 12.8 70.4 3.2c0 0-25.6-28.8-25.6-121.6s-6.4-153.6-6.4-153.6h-28.8l-22.4-12.8-16 16h-12.8z" fill="#2A2728" p-id="3017"></path><path d="M361.6 569.6s-6.4 67.2 0 115.2S400 819.2 400 819.2v19.2s25.6 12.8 67.2 3.2c0 0-25.6-28.8-25.6-121.6s-3.2-153.6-3.2-153.6h-25.6l-19.2-12.8-16 16h-16z" fill="#4D4D4F" p-id="3018"></path><path d="M380.8 764.8s25.6 9.6 67.2 0c6.4 32 28.8 80 28.8 80H432c-28.8 0-32-9.6-32-9.6l-19.2-70.4z" fill="#FFFFFF" p-id="3019"></path><path d="M246.4 569.6l12.8 89.6s64 19.2 76.8 16c0 0-12.8-99.2-6.4-105.6s-83.2 0-83.2 0z" fill="#7B7C7E" p-id="3020"></path><path d="M240 569.6l6.4 38.4v9.6l9.6 41.6s64 19.2 76.8 16c0 0-12.8-99.2-6.4-105.6s-86.4 0-86.4 0z" fill="#B9BBBD" p-id="3021"></path><path d="M265.6 681.6s9.6 44.8 25.6 64 51.2 64 67.2 76.8 28.8 16 28.8 16L361.6 768l-12.8-41.6-3.2-12.8s0-12.8-12.8-12.8-67.2-19.2-67.2-19.2z" fill="#7B7C7E" p-id="3022"></path><path d="M262.4 681.6s9.6 44.8 25.6 64 51.2 64 67.2 76.8 28.8 16 28.8 16L358.4 768l-12.8-41.6-3.2-12.8s0-12.8-12.8-12.8-67.2-19.2-67.2-19.2z" fill="#B9BBBD" p-id="3023"></path><path d="M464 563.2l-3.2 102.4s0 9.6 12.8 9.6h57.6l60.8-9.6 60.8-25.6 28.8-22.4V560s-3.2-28.8-16-48S464 563.2 464 563.2z" fill="#7B7C7E" p-id="3024"></path><path d="M467.2 563.2L464 665.6s0 9.6 12.8 9.6h57.6l60.8-9.6L656 640l28.8-22.4V560s-3.2-28.8-16-48-201.6 51.2-201.6 51.2z" fill="#B9BBBD" p-id="3025"></path><path d="M662.4 656s-57.6 25.6-73.6 28.8-51.2 12.8-83.2 9.6-41.6 0-41.6 0-9.6 16 3.2 54.4 12.8 76.8 25.6 83.2 70.4-22.4 99.2-48 73.6-124.8 73.6-124.8l-3.2-3.2z" fill="#7B7C7E" p-id="3026"></path><path d="M665.6 659.2S608 684.8 592 688s-51.2 12.8-83.2 9.6-41.6 0-41.6 0-9.6 16 3.2 54.4 12.8 76.8 25.6 83.2 70.4-22.4 99.2-48 73.6-124.8 73.6-124.8l-3.2-3.2z" fill="#B9BBBD" p-id="3027"></path><path d="M748.8 515.2s-9.6 3.2-12.8 22.4 0 16 0 16l-19.2 12.8s-3.2-9.6-16-6.4-16 6.4-16 6.4h-19.2s-9.6 3.2-6.4 12.8-3.2 3.2-6.4 16c-3.2 6.4-6.4 3.2-3.2 16s0 22.4 0 22.4 9.6 16 9.6 25.6 32 9.6 51.2 3.2 22.4-12.8 32-19.2 28.8-16 41.6-22.4 41.6-19.2 76.8-25.6 32-22.4 32-22.4-60.8 12.8-102.4-16-38.4-32-41.6-41.6zM128 598.4s16-12.8 35.2-44.8 44.8-32 44.8-32 9.6 38.4 16 41.6 16 3.2 16 3.2 3.2 38.4 6.4 54.4l9.6 28.8s-22.4-16-32-16c-28.8 0-96-35.2-96-35.2z" fill="#D3D5D6" p-id="3028"></path><path d="M329.6 310.4l-12.8 16s-96 12.8-102.4 12.8-19.2 0-19.2 32 6.4 121.6 6.4 121.6v32s6.4 28.8 12.8 38.4 73.6 6.4 73.6 6.4l86.4 3.2 19.2-16 22.4 16h153.6l44.8-3.2s9.6 0 25.6-9.6 32-22.4 32-22.4l70.4-147.2 32-54.4-6.4-19.2-22.4-3.2-6.4-9.6s-102.4-16-115.2-9.6L611.2 272s-38.4 48-108.8 64c-108.8 16-140.8 6.4-172.8-25.6z" fill="#646567" p-id="3029"></path><path d="M329.6 310.4l-12.8 16s-96 12.8-102.4 12.8-19.2 0-19.2 32 6.4 121.6 6.4 121.6V512s3.2 22.4 9.6 32 76.8 3.2 76.8 3.2l73.6 3.2 22.4-16 19.2 16 166.4-3.2 32-3.2s12.8 0 28.8-9.6 28.8-28.8 28.8-28.8l67.2-134.4 28.8-44.8 12.8-9.6-22.4-3.2-6.4-9.6s-102.4-16-115.2-9.6L611.2 272s-38.4 48-108.8 64c-108.8 16-140.8 6.4-172.8-25.6z" fill="#B8B9BB" p-id="3030"></path><path d="M316.8 320s-3.2 16 9.6 22.4 19.2 12.8 38.4 16l6.4 3.2s3.2 0 3.2 6.4v25.6H368V368s-3.2-6.4-9.6-6.4-28.8-9.6-35.2-22.4-6.4-19.2-6.4-19.2z m310.4-25.6S544 361.6 496 364.8s-44.8 6.4-44.8 6.4 0 12.8-3.2 19.2c0 6.4 3.2 3.2 3.2 3.2l3.2-16s0-3.2 16-3.2 54.4-9.6 64-12.8l57.6-38.4 35.2-28.8z" fill="#C1C1C1" p-id="3031"></path><path d="M204.8 428.8l19.2 96s0 9.6 9.6 9.6h76.8l41.6 3.2s16 0 25.6-16 3.2-6.4 6.4-16h9.6s6.4 12.8 9.6 16 6.4 9.6 16 9.6H480l70.4-3.2h35.2s6.4 3.2 25.6-6.4 28.8-19.2 28.8-19.2 3.2 0 9.6-9.6 28.8-54.4 28.8-54.4l51.2-89.6 19.2-35.2-12.8-12.8-67.2 118.4-41.6 73.6s-6.4 6.4-9.6 6.4S608 512 572.8 512s-147.2 3.2-147.2 3.2-22.4-6.4-25.6-16c-3.2-6.4-16-3.2-16-3.2s-6.4 22.4-22.4 25.6c-19.2 3.2-76.8 0-76.8 0l-41.6-3.2s-9.6 3.2-12.8-12.8-25.6-76.8-25.6-76.8z" fill="#717375" p-id="3032"></path><path d="M224 406.4l19.2 86.4s3.2 6.4 32 6.4H560s19.2 0 28.8-16 32-76.8 32-76.8 6.4-19.2-16-19.2-198.4 3.2-198.4 3.2h-160c-3.2-3.2-22.4-9.6-22.4 16z" fill="#AEB0B1" p-id="3033"></path><path d="M227.2 400l19.2 73.6s6.4 6.4 32 6.4h275.2s19.2 0 25.6-12.8c6.4-16 28.8-67.2 28.8-67.2s6.4-16-16-16-192 3.2-192 3.2H246.4c0-3.2-19.2-6.4-19.2 12.8z" fill="#EE141D" p-id="3034"></path><path d="M358.4 588.8s35.2 9.6 80 3.2v12.8s-57.6 9.6-80 0v-16z" fill="#3C3C3E" p-id="3035"></path><path d="M358.4 585.6s35.2 9.6 80 3.2v12.8s-57.6 9.6-80 0v-16z" fill="#5A5B5E" p-id="3036"></path><path d="M358.4 624s38.4 9.6 83.2 3.2V640s-57.6 9.6-83.2 0v-16z" fill="#3C3C3E" p-id="3037"></path><path d="M358.4 620.8s38.4 9.6 83.2 3.2v12.8s-57.6 9.6-83.2 0v-16z" fill="#5A5B5E" p-id="3038"></path><path d="M358.4 656s38.4 9.6 83.2 3.2V672s-57.6 9.6-83.2 0v-16z" fill="#3C3C3E" p-id="3039"></path><path d="M358.4 652.8s38.4 9.6 83.2 3.2v12.8s-57.6 9.6-83.2 0v-16z" fill="#5A5B5E" p-id="3040"></path><path d="M361.6 691.2s35.2 9.6 80 3.2v12.8s-51.2 9.6-76.8 0l-3.2-16z" fill="#3C3C3E" p-id="3041"></path><path d="M361.6 688s35.2 9.6 80 3.2V704s-54.4 9.6-80 0v-16z" fill="#5A5B5E" p-id="3042"></path><path d="M374.4 732.8s25.6 9.6 70.4 3.2v12.8s-41.6 9.6-67.2 3.2l-3.2-19.2z" fill="#3C3C3E" p-id="3043"></path><path d="M371.2 729.6s25.6 9.6 73.6 3.2v12.8s-41.6 3.2-67.2 0l-6.4-16z" fill="#5A5B5E" p-id="3044"></path><path d="M288 422.4c-16 0-28.8 9.6-28.8 22.4 0 9.6 12.8 22.4 28.8 22.4s28.8-9.6 28.8-22.4c0-9.6-12.8-22.4-28.8-22.4z m0 41.6c-12.8 0-25.6-6.4-25.6-19.2 0-9.6 12.8-19.2 25.6-19.2s25.6 6.4 25.6 19.2S304 464 288 464z m217.6-3.2h-28.8v-32s0-6.4-3.2-6.4-3.2 3.2-3.2 6.4V464s0 3.2 3.2 3.2h32s3.2-3.2 0-6.4c3.2 0 0 0 0 0zM464 464h-22.4c-9.6 0-16-9.6-16-19.2v-3.2c0-6.4 6.4-12.8 16-12.8H464v-3.2h-22.4c-9.6 0-19.2 6.4-19.2 19.2v3.2c0 9.6 9.6 19.2 19.2 19.2H464V464z m70.4-35.2h22.4v-3.2h-22.4c-9.6 0-19.2 9.6-19.2 19.2v3.2c0 9.6 9.6 19.2 19.2 19.2h22.4V464h-22.4c-9.6 0-16-6.4-16-16h32s3.2 0 3.2-3.2 0-3.2-3.2-3.2h-32c3.2-6.4 6.4-12.8 16-12.8z m-176-6.4h-32V464s0 3.2 3.2 3.2 3.2 0 3.2-3.2v-38.4h22.4c6.4 0 9.6 3.2 9.6 6.4v3.2c0 3.2-3.2 6.4-9.6 6.4h-12.8v6.4l16 19.2h3.2v-6.4L348.8 448h9.6c6.4 0 12.8-3.2 12.8-9.6v-3.2c0-9.6-6.4-12.8-12.8-12.8z m204.8 3.2a3.2 3.2 0 1 0 6.4 0 3.2 3.2 0 1 0-6.4 0z m-163.2 0s-3.2 0 0 0c-3.2 0-3.2 0 0 0h-3.2L377.6 464v3.2h3.2L400 432l9.6 19.2h-16s0 3.2 3.2 3.2h12.8l3.2 12.8h6.4L400 425.6z" fill="#FFFFFF" p-id="3045"></path></svg>