<?xml version="1.0" standalone="no"?><!DOCTYPE svg PUBLIC "-//W3C//DTD SVG 1.1//EN" "http://www.w3.org/Graphics/SVG/1.1/DTD/svg11.dtd"><svg t="1668417785399" class="icon" viewBox="0 0 1024 1024" version="1.1" xmlns="http://www.w3.org/2000/svg" p-id="3193" xmlns:xlink="http://www.w3.org/1999/xlink" width="128" height="128"><path d="M511.917 71.885c-275.944 0-499.823 222.87-499.823 497.638 0 55.593 9.237 109.17 26.032 159.05H72.89c30.736 0 59.455-7.39 83.472-19.818a43.345 43.345 0 0 1 20.322-5.04c15.284 0 28.552 5.88 36.781 19.65 7.222 12.43 13.941 19.652 22.17 24.858 7.054 4.535 16.795 8.398 30.736 7.726 6.55-0.336 16.46-1.848 18.978-8.734 2.854-7.893-0.672-13.77-10.246-17.633-13.435-5.711-17.13-13.773-24.352-26.537-7.222-12.765-22.674-19.484-25.192-43.33-2.352-23.515 16.122-53.075 52.735-43.669 26.369 6.718 43.5 39.3 49.882 50.384 3.36 5.879 15.116 12.765 24.69 3.864 9.573-8.734 18.307-8.734 25.528 2.352 6.214 9.573 51.057 69.195 99.763 70.707 49.545 1.68 75.913-11.085 97.412-10.413 15.114 0.504 22.505 8.23 31.07 9.573 15.285 2.352 26.033-11.253 42.828-10.581 13.604 0.673 28.383 9.742 43.5 9.742s47.194-18.139 46.69-10.75c-0.673 13.269-11.086 36.781-13.604 47.698-1.848 7.558-0.169 25.865-4.87 40.309-4.032 14.947-17.972 33.758-21.499 39.133-12.26 18.307-21.161 23.681-31.07 42.826-11.085 21.499-29.56 41.316-34.263 47.699-6.045 8.23 34.599-0.167 49.042-13.94 12.26-11.588 33.759-46.522 67.852-54.08 23.01-5.04 27.545-13.772 24.858-21.834-0.504-1.008-0.673-2.182-0.673-3.19 0-3.193 1.848-5.88 4.367-7.055 23.68-9.742 55.928-15.955 91.197-15.955 20.658 0 41.15 2.855 60.463 7.221 50.721-77.929 80.28-170.805 80.28-270.4 0.17-274.6-223.71-497.471-499.822-497.471z m406.61 487.73c-23.85 131-239.164 175.004-448.598 112.023-199.526-60.126-374.7-179.876-354.378-250.08 11.756-40.812 76.922-58.279 163.584-49.04-13.1 26.703-12.26 58.11 45.18 93.043 70.203 39.637 188.777 73.563 220.856 70.205 11.924-1.177 22.673-7.055 11.924-14.277s-20.323-21.498-26.368-46.522c-3.36-13.94-7.222-33.255-82.464-47.531-161.738-30.735-155.524-76.25-150.82-102.45 0 0 14.443-64.325 20.321-86.999 6.047-22.673 21.33-74.57 125.629-51.225 60.126 13.436 92.708-3.358 109.335-7.557 45.011-11.59 94.891-3.527 122.436 24.52 28.552 29.224 67.685 119.246 86.496 186.594 9.572 34.263 7.053 50.553 2.182 62.142-3.527 7.894-5.541 12.933-17.298 32.92-2.016 3.526-0.335 7.388 4.198 5.038 31.24-15.956 38.293-37.117 43.165-53.577 85.15 19.314 135.535 63.317 124.62 122.772z" fill="#D81E06" p-id="3194"></path><path d="M621.084 793.906c-0.503 0-0.84 0.168-1.175 0.504-6.551 7.39-9.238 9.908-13.94 13.604-11.254 9.069-24.185-1.175-32.415-6.046-18.306-10.75-33.085-3.863-36.782 4.367-3.526 8.396 0.337 18.307 10.413 17.13 13.941-1.847 14.612 0.336 24.69 6.718 18.81 11.925 32.582 5.376 39.637-0.167 5.878-4.703 9.237-8.734 12.26-14.277 5.374-10.748 1.008-18.978-1.68-21.497-0.336-0.168-0.671-0.336-1.008-0.336z m-160.73-517.121c-24.351 0-41.819 3.19-57.102 3.526-15.116 0.336-26.871-10.748-32.247-17.467-4.535-5.541-18.811-10.917-26.705 7.055-7.893 18.138 6.719 37.452 18.81 39.972 0 0 19.987 37.117 35.272 20.993 10.748-11.42 16.795-17.633 74.57-21.832 27.543-2.016 30.398-8.399 29.559-15.116-0.84-8.062-17.468-17.131-42.157-17.131z m139.064-79.106h-2.854c-5.376 0-11.085 0.336-16.795 1.008-19.147 2.016-35.775 6.718-47.027 12.596-0.504 0.169-0.84 0.673-0.84 1.344 0 0.84 0.673 1.512 1.68 1.512h0.168c3.19-0.504 6.55-1.008 9.909-1.344 31.071-3.024 57.103 2.016 58.446 11.42 1.008 7.222-12.596 14.612-32.582 19.315-1.008 0.168-1.679 1.175-1.679 2.183s0.671 1.848 1.68 2.016c8.397 2.352 18.138 3.862 28.384 4.198 32.077 0.672 58.278-10.749 58.782-25.696 0.336-15.283-25.193-27.88-57.272-28.552z" fill="#D81E06" p-id="3195"></path></svg>